<svg width="302" height="309" viewBox="0 0 302 309" fill="none" xmlns="http://www.w3.org/2000/svg">
<path d="M3.58026 5.19072C4.29474 5.19072 4.89145 5.25746 5.37038 5.39093C5.85717 5.5244 6.22227 5.74817 6.46566 6.06223C6.71691 6.36843 6.84253 6.77671 6.84253 7.28705C6.84253 7.61681 6.78364 7.91124 6.66587 8.17034C6.5481 8.42159 6.37537 8.63357 6.14768 8.80631C5.92784 8.97119 5.65304 9.08111 5.32328 9.13607V9.19495C5.66089 9.24991 5.96317 9.35198 6.23012 9.50116C6.49707 9.64248 6.70905 9.85055 6.86608 10.1253C7.02311 10.4001 7.10163 10.7574 7.10163 11.1971C7.10163 11.7074 6.97993 12.1432 6.73653 12.5043C6.50099 12.8576 6.15945 13.1285 5.71192 13.317C5.27224 13.5054 4.74619 13.5996 4.13378 13.5996H1.11883V5.19072H3.58026ZM3.79225 8.70031C4.45177 8.70031 4.90322 8.59432 5.14662 8.38233C5.39786 8.17034 5.52349 7.85628 5.52349 7.44016C5.52349 7.01618 5.37431 6.7139 5.07596 6.53331C4.7776 6.35273 4.30259 6.26244 3.65092 6.26244H2.39076V8.70031H3.79225ZM2.39076 9.7367V12.5397H3.93357C4.61665 12.5397 5.09166 12.4062 5.35861 12.1392C5.62556 11.8723 5.75903 11.519 5.75903 11.0793C5.75903 10.8123 5.70014 10.5768 5.58237 10.3727C5.4646 10.1685 5.26439 10.0115 4.98174 9.90158C4.70694 9.79166 4.33007 9.7367 3.85113 9.7367H2.39076ZM11.1677 7.13395C11.9685 7.13395 12.5652 7.31061 12.9578 7.66392C13.3504 8.00939 13.5467 8.55506 13.5467 9.30095V13.5996H12.6634L12.4161 12.7163H12.369C12.1884 12.944 11.9999 13.1324 11.8037 13.2816C11.6152 13.4308 11.3954 13.5407 11.1441 13.6114C10.9007 13.682 10.6024 13.7174 10.2491 13.7174C9.8722 13.7174 9.53066 13.6506 9.22446 13.5172C8.9261 13.3758 8.69056 13.1639 8.51783 12.8812C8.3451 12.5907 8.25873 12.2295 8.25873 11.7977C8.25873 11.1539 8.50213 10.6632 8.98892 10.3256C9.48356 9.98795 10.2334 9.80344 11.2384 9.77203L12.3219 9.7367V9.38339C12.3219 8.9123 12.2159 8.58254 12.0039 8.39411C11.7919 8.20567 11.4935 8.11145 11.1088 8.11145C10.779 8.11145 10.465 8.15856 10.1666 8.25278C9.86828 8.347 9.58563 8.46084 9.31868 8.59432L8.91825 7.68748C9.21661 7.53045 9.55815 7.4009 9.94287 7.29883C10.3354 7.18891 10.7437 7.13395 11.1677 7.13395ZM11.4621 10.5729C10.7398 10.6043 10.2373 10.726 9.95464 10.938C9.67984 11.1421 9.54244 11.4326 9.54244 11.8095C9.54244 12.1392 9.64059 12.3787 9.83687 12.5279C10.041 12.6771 10.2962 12.7517 10.6024 12.7517C11.097 12.7517 11.5053 12.6143 11.8272 12.3395C12.1491 12.0647 12.3101 11.6525 12.3101 11.1029V10.5493L11.4621 10.5729ZM19.4967 7.25172V8.25278H16.7173V13.5996H15.4689V7.25172H19.4967ZM23.1864 7.13395C23.9872 7.13395 24.5839 7.31061 24.9765 7.66392C25.3691 8.00939 25.5654 8.55506 25.5654 9.30095V13.5996H24.6821L24.4347 12.7163H24.3876C24.2071 12.944 24.0186 13.1324 23.8223 13.2816C23.6339 13.4308 23.4141 13.5407 23.1628 13.6114C22.9194 13.682 22.6211 13.7174 22.2678 13.7174C21.8909 13.7174 21.5493 13.6506 21.2431 13.5172C20.9448 13.3758 20.7092 13.1639 20.5365 12.8812C20.3638 12.5907 20.2774 12.2295 20.2774 11.7977C20.2774 11.1539 20.5208 10.6632 21.0076 10.3256C21.5022 9.98795 22.252 9.80344 23.257 9.77203L24.3405 9.7367V9.38339C24.3405 8.9123 24.2345 8.58254 24.0225 8.39411C23.8106 8.20567 23.5122 8.11145 23.1275 8.11145C22.7977 8.11145 22.4837 8.15856 22.1853 8.25278C21.887 8.347 21.6043 8.46084 21.3374 8.59432L20.9369 7.68748C21.2353 7.53045 21.5768 7.4009 21.9615 7.29883C22.3541 7.18891 22.7624 7.13395 23.1864 7.13395ZM23.4808 10.5729C22.7585 10.6043 22.256 10.726 21.9733 10.938C21.6985 11.1421 21.5611 11.4326 21.5611 11.8095C21.5611 12.1392 21.6593 12.3787 21.8556 12.5279C22.0597 12.6771 22.3149 12.7517 22.6211 12.7517C23.1157 12.7517 23.524 12.6143 23.8459 12.3395C24.1678 12.0647 24.3288 11.6525 24.3288 11.1029V10.5493L23.4808 10.5729Z" fill="white"/>
<path d="M0.605683 28.1472H3.83599V28.9952H0.605683V28.1472ZM8.94265 31.7308C8.52204 31.7308 8.13844 31.6349 7.79185 31.4431C7.44863 31.2513 7.17439 30.9956 6.96913 30.6759C6.76724 30.3529 6.66629 29.9962 6.66629 29.6059C6.66629 29.2425 6.76219 28.9094 6.95399 28.6065C7.14579 28.3003 7.39648 28.058 7.70605 27.8797C7.45368 27.7182 7.24506 27.5045 7.08018 27.2387C6.91866 26.9695 6.8379 26.6784 6.8379 26.3655C6.8379 26.0021 6.93212 25.6723 7.12056 25.3762C7.31235 25.0801 7.56641 24.8446 7.88271 24.6696C8.20237 24.4913 8.55569 24.4021 8.94265 24.4021C9.32961 24.4021 9.68125 24.4913 9.99755 24.6696C10.3172 24.8446 10.5713 25.0801 10.7597 25.3762C10.9515 25.6723 11.0474 26.0021 11.0474 26.3655C11.0474 26.6784 10.9666 26.9695 10.8051 27.2387C10.6436 27.5045 10.4333 27.7182 10.1742 27.8797C10.4939 28.058 10.7479 28.3003 10.9364 28.6065C11.1282 28.9094 11.2241 29.2425 11.2241 29.6059C11.2241 29.9929 11.1214 30.3479 10.9162 30.6709C10.7109 30.9939 10.435 31.2513 10.0884 31.4431C9.74518 31.6349 9.36326 31.7308 8.94265 31.7308ZM8.94265 30.8829C9.19838 30.8829 9.42888 30.8257 9.63414 30.7113C9.84276 30.5969 10.0093 30.4438 10.1338 30.252C10.2583 30.0568 10.3206 29.8414 10.3206 29.6059C10.3206 29.367 10.2583 29.1516 10.1338 28.9598C10.0093 28.768 9.84276 28.6149 9.63414 28.5005C9.42888 28.3861 9.19838 28.3289 8.94265 28.3289C8.69028 28.3289 8.45979 28.3861 8.25116 28.5005C8.04254 28.6149 7.87598 28.768 7.75147 28.9598C7.62697 29.1516 7.56472 29.367 7.56472 29.6059C7.56472 29.8414 7.62697 30.0568 7.75147 30.252C7.87598 30.4438 8.04254 30.5969 8.25116 30.7113C8.45979 30.8257 8.69028 30.8829 8.94265 30.8829ZM8.94265 27.481C9.16473 27.481 9.36663 27.4305 9.54833 27.3295C9.73004 27.2286 9.87473 27.094 9.98241 26.9258C10.0934 26.7575 10.149 26.5708 10.149 26.3655C10.149 26.1569 10.0934 25.9701 9.98241 25.8052C9.87473 25.637 9.73004 25.5024 9.54833 25.4015C9.36663 25.3005 9.16473 25.25 8.94265 25.25C8.72057 25.25 8.51867 25.3005 8.33697 25.4015C8.15526 25.5024 8.00889 25.637 7.89785 25.8052C7.79017 25.9701 7.73633 26.1569 7.73633 26.3655C7.73633 26.5708 7.79017 26.7575 7.89785 26.9258C8.00889 27.094 8.15526 27.2286 8.33697 27.3295C8.51867 27.4305 8.72057 27.481 8.94265 27.481ZM12.1841 31.7308C12.0563 31.7308 11.9469 31.6854 11.856 31.5946C11.7686 31.5037 11.7248 31.3927 11.7248 31.2614C11.7248 31.1369 11.7686 31.0293 11.856 30.9384C11.9469 30.8476 12.0563 30.8021 12.1841 30.8021C12.3153 30.8021 12.4264 30.8476 12.5172 30.9384C12.6081 31.0293 12.6535 31.1369 12.6535 31.2614C12.6535 31.3927 12.6081 31.5037 12.5172 31.5946C12.4264 31.6854 12.3153 31.7308 12.1841 31.7308ZM16.4011 31.5996V29.6917H13.3626V28.8337L16.1891 24.5333H17.249V28.8438H17.9506V29.6917H17.249V31.5996H16.4011ZM14.3569 28.8337L16.4011 28.8438L16.3859 25.7245L14.3569 28.8337ZM24.5337 26.1586H25.7047L23.4334 28.7731L25.8965 31.5996H24.6649L22.2826 28.8438V31.5996H21.2125V26.1586H22.2826V28.8034L24.5337 26.1586ZM29.9699 26.1586V27.0166H27.5875V31.5996H26.5175V26.1586H29.9699Z" fill="#26EAAF"/>
<g clip-path="url(#clip0_3483_193096)">
<path d="M42.419 25.8086L45.0294 28.419M42.419 25.8086L39.8086 28.419M42.419 25.8086V31.8996" stroke="#26EAAF" stroke-width="0.87014" stroke-linecap="round" stroke-linejoin="round"/>
</g>
<g clip-path="url(#clip1_3483_193096)">
<path d="M12.8691 301.933C12.4835 301.933 12.138 301.846 11.8327 301.674C11.5273 301.498 11.2651 301.256 11.0461 300.947C10.8271 300.639 10.6606 300.283 10.5465 299.879C10.4323 299.471 10.3753 299.036 10.3753 298.574C10.3753 298.111 10.4323 297.676 10.5465 297.269C10.6606 296.862 10.8271 296.506 11.0461 296.2C11.2651 295.892 11.5273 295.651 11.8327 295.478C12.138 295.303 12.4835 295.215 12.8691 295.215C13.2516 295.215 13.5955 295.303 13.9008 295.478C14.2093 295.651 14.4699 295.892 14.6828 296.2C14.8987 296.506 15.0637 296.862 15.1778 297.269C15.295 297.676 15.3536 298.111 15.3536 298.574C15.3536 299.036 15.295 299.471 15.1778 299.879C15.0637 300.283 14.8987 300.639 14.6828 300.947C14.4699 301.256 14.2093 301.498 13.9008 301.674C13.5955 301.846 13.2516 301.933 12.8691 301.933ZM12.8691 301.156C13.2546 301.156 13.577 301.037 13.8361 300.799C14.0982 300.559 14.2941 300.242 14.4237 299.851C14.5532 299.459 14.618 299.033 14.618 298.574C14.618 298.09 14.5501 297.653 14.4144 297.264C14.2818 296.873 14.0844 296.563 13.8222 296.334C13.5631 296.106 13.2454 295.992 12.8691 295.992C12.573 295.992 12.3139 296.061 12.0918 296.2C11.8728 296.339 11.6908 296.529 11.5458 296.769C11.4009 297.01 11.2914 297.286 11.2173 297.598C11.1464 297.906 11.1109 298.231 11.1109 298.574C11.1109 299.033 11.1772 299.461 11.3099 299.855C11.4425 300.247 11.6384 300.562 11.8975 300.799C12.1596 301.037 12.4835 301.156 12.8691 301.156ZM16.7246 301.812V296.112H15.9982L16.2157 295.335H17.5019V301.812H16.7246ZM19.0308 301.933C18.9136 301.933 18.8134 301.891 18.7301 301.808C18.6499 301.725 18.6098 301.623 18.6098 301.503C18.6098 301.388 18.6499 301.29 18.7301 301.206C18.8134 301.123 18.9136 301.081 19.0308 301.081C19.1511 301.081 19.2529 301.123 19.3362 301.206C19.4195 301.29 19.4611 301.388 19.4611 301.503C19.4611 301.623 19.4195 301.725 19.3362 301.808C19.2529 301.891 19.1511 301.933 19.0308 301.933ZM21.1164 301.812V296.112H20.39L20.6074 295.335H21.8937V301.812H21.1164ZM23.0016 301.812V301.123C23.2391 300.91 23.5059 300.673 23.802 300.411C24.0981 300.145 24.3927 299.869 24.6857 299.582C24.9818 299.292 25.2532 299.006 25.5 298.722C25.7468 298.438 25.9457 298.17 26.0969 297.917C26.248 297.661 26.3236 297.437 26.3236 297.246C26.3236 297.018 26.268 296.809 26.157 296.621C26.046 296.43 25.8964 296.277 25.7082 296.163C25.5231 296.049 25.3165 295.992 25.0882 295.992C24.86 295.992 24.6502 296.049 24.459 296.163C24.2708 296.277 24.1197 296.43 24.0056 296.621C23.8945 296.809 23.839 297.018 23.839 297.246H23.0617C23.0617 296.867 23.1542 296.524 23.3393 296.219C23.5244 295.91 23.7696 295.667 24.075 295.488C24.3803 295.306 24.7181 295.215 25.0882 295.215C25.4584 295.215 25.7946 295.306 26.0969 295.488C26.4022 295.67 26.6459 295.915 26.8279 296.223C27.0099 296.529 27.1009 296.87 27.1009 297.246C27.1009 297.462 27.0484 297.695 26.9435 297.945C26.8387 298.191 26.6952 298.446 26.5133 298.708C26.3313 298.97 26.1246 299.235 25.8933 299.504C25.6619 299.769 25.4183 300.031 25.1623 300.29C24.9062 300.549 24.6518 300.798 24.3988 301.035H27.1841V301.812H23.0016Z" fill="#ADABB5"/>
<path d="M50.2167 301.933C49.8312 301.933 49.4857 301.846 49.1803 301.674C48.875 301.498 48.6128 301.256 48.3938 300.947C48.1748 300.639 48.0082 300.283 47.8941 299.879C47.78 299.471 47.7229 299.036 47.7229 298.574C47.7229 298.111 47.78 297.676 47.8941 297.269C48.0082 296.862 48.1748 296.506 48.3938 296.2C48.6128 295.892 48.875 295.651 49.1803 295.478C49.4857 295.303 49.8312 295.215 50.2167 295.215C50.5992 295.215 50.9431 295.303 51.2485 295.478C51.5569 295.651 51.8176 295.892 52.0304 296.2C52.2463 296.506 52.4113 296.862 52.5255 297.269C52.6427 297.676 52.7013 298.111 52.7013 298.574C52.7013 299.036 52.6427 299.471 52.5255 299.879C52.4113 300.283 52.2463 300.639 52.0304 300.947C51.8176 301.256 51.5569 301.498 51.2485 301.674C50.9431 301.846 50.5992 301.933 50.2167 301.933ZM50.2167 301.156C50.6023 301.156 50.9246 301.037 51.1837 300.799C51.4459 300.559 51.6418 300.242 51.7713 299.851C51.9009 299.459 51.9656 299.033 51.9656 298.574C51.9656 298.09 51.8978 297.653 51.7621 297.264C51.6294 296.873 51.432 296.563 51.1698 296.334C50.9107 296.106 50.593 295.992 50.2167 295.992C49.9206 295.992 49.6615 296.061 49.4394 296.2C49.2204 296.339 49.0385 296.529 48.8935 296.769C48.7485 297.01 48.639 297.286 48.565 297.598C48.494 297.906 48.4586 298.231 48.4586 298.574C48.4586 299.033 48.5249 299.461 48.6575 299.855C48.7902 300.247 48.986 300.562 49.2451 300.799C49.5073 301.037 49.8312 301.156 50.2167 301.156ZM56.1312 301.812V300.064H53.3459V299.277L55.9368 295.335H56.9084V299.286H57.5516V300.064H56.9084V301.812H56.1312ZM54.2573 299.277L56.1312 299.286L56.1173 296.427L54.2573 299.277ZM58.8997 301.933C58.7825 301.933 58.6822 301.891 58.5989 301.808C58.5187 301.725 58.4786 301.623 58.4786 301.503C58.4786 301.388 58.5187 301.29 58.5989 301.206C58.6822 301.123 58.7825 301.081 58.8997 301.081C59.02 301.081 59.1218 301.123 59.205 301.206C59.2883 301.29 59.33 301.388 59.33 301.503C59.33 301.623 59.2883 301.725 59.205 301.808C59.1218 301.891 59.02 301.933 58.8997 301.933ZM60.9853 301.812V296.112H60.2589L60.4763 295.335H61.7625V301.812H60.9853ZM62.8704 301.812V301.123C63.1079 300.91 63.3747 300.673 63.6709 300.411C63.967 300.145 64.2615 299.869 64.5546 299.582C64.8507 299.292 65.1221 299.006 65.3689 298.722C65.6156 298.438 65.8146 298.17 65.9657 297.917C66.1169 297.661 66.1924 297.437 66.1924 297.246C66.1924 297.018 66.1369 296.809 66.0259 296.621C65.9148 296.43 65.7652 296.277 65.5771 296.163C65.392 296.049 65.1853 295.992 64.9571 295.992C64.7288 295.992 64.5191 296.049 64.3279 296.163C64.1397 296.277 63.9886 296.43 63.8744 296.621C63.7634 296.809 63.7079 297.018 63.7079 297.246H62.9306C62.9306 296.867 63.0231 296.524 63.2082 296.219C63.3933 295.91 63.6385 295.667 63.9438 295.488C64.2492 295.306 64.587 295.215 64.9571 295.215C65.3272 295.215 65.6634 295.306 65.9657 295.488C66.2711 295.67 66.5148 295.915 66.6967 296.223C66.8787 296.529 66.9697 296.87 66.9697 297.246C66.9697 297.462 66.9173 297.695 66.8124 297.945C66.7075 298.191 66.5641 298.446 66.3821 298.708C66.2001 298.97 65.9935 299.235 65.7621 299.504C65.5308 299.769 65.2871 300.031 65.0311 300.29C64.7751 300.549 64.5206 300.798 64.2677 301.035H67.053V301.812H62.8704Z" fill="#ADABB5"/>
<path d="M90.5644 301.933C90.1788 301.933 89.8334 301.846 89.528 301.674C89.2226 301.498 88.9604 301.256 88.7415 300.947C88.5225 300.639 88.3559 300.283 88.2418 299.879C88.1276 299.471 88.0706 299.036 88.0706 298.574C88.0706 298.111 88.1276 297.676 88.2418 297.269C88.3559 296.862 88.5225 296.506 88.7415 296.2C88.9604 295.892 89.2226 295.651 89.528 295.478C89.8334 295.303 90.1788 295.215 90.5644 295.215C90.9469 295.215 91.2908 295.303 91.5961 295.478C91.9046 295.651 92.1652 295.892 92.3781 296.2C92.594 296.506 92.759 296.862 92.8731 297.269C92.9903 297.676 93.0489 298.111 93.0489 298.574C93.0489 299.036 92.9903 299.471 92.8731 299.879C92.759 300.283 92.594 300.639 92.3781 300.947C92.1652 301.256 91.9046 301.498 91.5961 301.674C91.2908 301.846 90.9469 301.933 90.5644 301.933ZM90.5644 301.156C90.9499 301.156 91.2723 301.037 91.5314 300.799C91.7936 300.559 91.9894 300.242 92.119 299.851C92.2485 299.459 92.3133 299.033 92.3133 298.574C92.3133 298.09 92.2454 297.653 92.1097 297.264C91.9771 296.873 91.7797 296.563 91.5175 296.334C91.2584 296.106 90.9407 295.992 90.5644 295.992C90.2683 295.992 90.0092 296.061 89.7871 296.2C89.5681 296.339 89.3861 296.529 89.2411 296.769C89.0962 297.01 88.9867 297.286 88.9126 297.598C88.8417 297.906 88.8062 298.231 88.8062 298.574C88.8062 299.033 88.8725 299.461 89.0052 299.855C89.1378 300.247 89.3337 300.562 89.5928 300.799C89.855 301.037 90.1788 301.156 90.5644 301.156ZM93.9387 301.812L97.2237 296.112H93.5084V295.335H98.1213V296.112L94.8271 301.812H93.9387ZM99.0937 301.933C98.9765 301.933 98.8763 301.891 98.793 301.808C98.7128 301.725 98.6727 301.623 98.6727 301.503C98.6727 301.388 98.7128 301.29 98.793 301.206C98.8763 301.123 98.9765 301.081 99.0937 301.081C99.214 301.081 99.3158 301.123 99.3991 301.206C99.4824 301.29 99.524 301.388 99.524 301.503C99.524 301.623 99.4824 301.725 99.3991 301.808C99.3158 301.891 99.214 301.933 99.0937 301.933ZM101.179 301.812V296.112H100.453L100.67 295.335H101.957V301.812H101.179ZM103.064 301.812V301.123C103.302 300.91 103.569 300.673 103.865 300.411C104.161 300.145 104.456 299.869 104.749 299.582C105.045 299.292 105.316 299.006 105.563 298.722C105.81 298.438 106.009 298.17 106.16 297.917C106.311 297.661 106.386 297.437 106.386 297.246C106.386 297.018 106.331 296.809 106.22 296.621C106.109 296.43 105.959 296.277 105.771 296.163C105.586 296.049 105.379 295.992 105.151 295.992C104.923 295.992 104.713 296.049 104.522 296.163C104.334 296.277 104.183 296.43 104.068 296.621C103.957 296.809 103.902 297.018 103.902 297.246H103.125C103.125 296.867 103.217 296.524 103.402 296.219C103.587 295.91 103.833 295.667 104.138 295.488C104.443 295.306 104.781 295.215 105.151 295.215C105.521 295.215 105.857 295.306 106.16 295.488C106.465 295.67 106.709 295.915 106.891 296.223C107.073 296.529 107.164 296.87 107.164 297.246C107.164 297.462 107.111 297.695 107.006 297.945C106.902 298.191 106.758 298.446 106.576 298.708C106.394 298.97 106.188 299.235 105.956 299.504C105.725 299.769 105.481 300.031 105.225 300.29C104.969 300.549 104.715 300.798 104.462 301.035H107.247V301.812H103.064Z" fill="#ADABB5"/>
<path d="M130.912 301.933C130.526 301.933 130.181 301.846 129.876 301.674C129.57 301.498 129.308 301.256 129.089 300.947C128.87 300.639 128.704 300.283 128.589 299.879C128.475 299.471 128.418 299.036 128.418 298.574C128.418 298.111 128.475 297.676 128.589 297.269C128.704 296.862 128.87 296.506 129.089 296.2C129.308 295.892 129.57 295.651 129.876 295.478C130.181 295.303 130.526 295.215 130.912 295.215C131.295 295.215 131.638 295.303 131.944 295.478C132.252 295.651 132.513 295.892 132.726 296.2C132.942 296.506 133.107 296.862 133.221 297.269C133.338 297.676 133.397 298.111 133.397 298.574C133.397 299.036 133.338 299.471 133.221 299.879C133.107 300.283 132.942 300.639 132.726 300.947C132.513 301.256 132.252 301.498 131.944 301.674C131.638 301.846 131.295 301.933 130.912 301.933ZM130.912 301.156C131.298 301.156 131.62 301.037 131.879 300.799C132.141 300.559 132.337 300.242 132.467 299.851C132.596 299.459 132.661 299.033 132.661 298.574C132.661 298.09 132.593 297.653 132.457 297.264C132.325 296.873 132.127 296.563 131.865 296.334C131.606 296.106 131.288 295.992 130.912 295.992C130.616 295.992 130.357 296.061 130.135 296.2C129.916 296.339 129.734 296.529 129.589 296.769C129.444 297.01 129.334 297.286 129.26 297.598C129.189 297.906 129.154 298.231 129.154 298.574C129.154 299.033 129.22 299.461 129.353 299.855C129.485 300.247 129.681 300.562 129.94 300.799C130.203 301.037 130.526 301.156 130.912 301.156ZM136.128 301.933C135.742 301.933 135.391 301.845 135.073 301.669C134.758 301.493 134.507 301.259 134.319 300.966C134.134 300.67 134.041 300.343 134.041 299.985C134.041 299.652 134.129 299.346 134.305 299.069C134.481 298.788 134.711 298.566 134.994 298.403C134.763 298.255 134.572 298.059 134.421 297.815C134.273 297.568 134.198 297.301 134.198 297.015C134.198 296.681 134.285 296.379 134.458 296.108C134.633 295.836 134.866 295.62 135.156 295.46C135.449 295.297 135.773 295.215 136.128 295.215C136.483 295.215 136.805 295.297 137.095 295.46C137.388 295.62 137.621 295.836 137.793 296.108C137.969 296.379 138.057 296.681 138.057 297.015C138.057 297.301 137.983 297.568 137.835 297.815C137.687 298.059 137.494 298.255 137.257 298.403C137.55 298.566 137.783 298.788 137.955 299.069C138.131 299.346 138.219 299.652 138.219 299.985C138.219 300.34 138.125 300.665 137.937 300.961C137.749 301.257 137.496 301.493 137.178 301.669C136.863 301.845 136.513 301.933 136.128 301.933ZM136.128 301.156C136.362 301.156 136.574 301.103 136.762 300.998C136.953 300.893 137.106 300.753 137.22 300.577C137.334 300.398 137.391 300.201 137.391 299.985C137.391 299.766 137.334 299.569 137.22 299.393C137.106 299.217 136.953 299.077 136.762 298.972C136.574 298.867 136.362 298.814 136.128 298.814C135.896 298.814 135.685 298.867 135.494 298.972C135.303 299.077 135.15 299.217 135.036 299.393C134.922 299.569 134.865 299.766 134.865 299.985C134.865 300.201 134.922 300.398 135.036 300.577C135.15 300.753 135.303 300.893 135.494 300.998C135.685 301.103 135.896 301.156 136.128 301.156ZM136.128 298.037C136.331 298.037 136.516 297.991 136.683 297.898C136.85 297.806 136.982 297.682 137.081 297.528C137.183 297.374 137.234 297.203 137.234 297.015C137.234 296.823 137.183 296.652 137.081 296.501C136.982 296.347 136.85 296.223 136.683 296.131C136.516 296.038 136.331 295.992 136.128 295.992C135.924 295.992 135.739 296.038 135.573 296.131C135.406 296.223 135.272 296.347 135.17 296.501C135.071 296.652 135.022 296.823 135.022 297.015C135.022 297.203 135.071 297.374 135.17 297.528C135.272 297.682 135.406 297.806 135.573 297.898C135.739 297.991 135.924 298.037 136.128 298.037ZM139.378 301.933C139.261 301.933 139.161 301.891 139.077 301.808C138.997 301.725 138.957 301.623 138.957 301.503C138.957 301.388 138.997 301.29 139.077 301.206C139.161 301.123 139.261 301.081 139.378 301.081C139.498 301.081 139.6 301.123 139.683 301.206C139.767 301.29 139.808 301.388 139.808 301.503C139.808 301.623 139.767 301.725 139.683 301.808C139.6 301.891 139.498 301.933 139.378 301.933ZM141.464 301.812V296.112H140.737L140.955 295.335H142.241V301.812H141.464ZM143.349 301.812V301.123C143.586 300.91 143.853 300.673 144.149 300.411C144.445 300.145 144.74 299.869 145.033 299.582C145.329 299.292 145.601 299.006 145.847 298.722C146.094 298.438 146.293 298.17 146.444 297.917C146.595 297.661 146.671 297.437 146.671 297.246C146.671 297.018 146.615 296.809 146.504 296.621C146.393 296.43 146.244 296.277 146.056 296.163C145.87 296.049 145.664 295.992 145.436 295.992C145.207 295.992 144.998 296.049 144.806 296.163C144.618 296.277 144.467 296.43 144.353 296.621C144.242 296.809 144.186 297.018 144.186 297.246H143.409C143.409 296.867 143.502 296.524 143.687 296.219C143.872 295.91 144.117 295.667 144.422 295.488C144.728 295.306 145.065 295.215 145.436 295.215C145.806 295.215 146.142 295.306 146.444 295.488C146.75 295.67 146.993 295.915 147.175 296.223C147.357 296.529 147.448 296.87 147.448 297.246C147.448 297.462 147.396 297.695 147.291 297.945C147.186 298.191 147.043 298.446 146.861 298.708C146.679 298.97 146.472 299.235 146.241 299.504C146.009 299.769 145.766 300.031 145.51 300.29C145.254 300.549 144.999 300.798 144.746 301.035H147.531V301.812H143.349Z" fill="#ADABB5"/>
<path d="M168.589 301.812V296.112H167.862L168.08 295.335H169.366V301.812H168.589ZM170.474 301.812V301.123C170.711 300.91 170.978 300.673 171.274 300.411C171.57 300.145 171.865 299.869 172.158 299.582C172.454 299.292 172.726 299.006 172.972 298.722C173.219 298.438 173.418 298.17 173.569 297.917C173.72 297.661 173.796 297.437 173.796 297.246C173.796 297.018 173.74 296.809 173.629 296.621C173.518 296.43 173.369 296.277 173.181 296.163C172.995 296.049 172.789 295.992 172.561 295.992C172.332 295.992 172.123 296.049 171.931 296.163C171.743 296.277 171.592 296.43 171.478 296.621C171.367 296.809 171.311 297.018 171.311 297.246H170.534C170.534 296.867 170.627 296.524 170.812 296.219C170.997 295.91 171.242 295.667 171.547 295.488C171.853 295.306 172.19 295.215 172.561 295.215C172.931 295.215 173.267 295.306 173.569 295.488C173.875 295.67 174.118 295.915 174.3 296.223C174.482 296.529 174.573 296.87 174.573 297.246C174.573 297.462 174.521 297.695 174.416 297.945C174.311 298.191 174.168 298.446 173.986 298.708C173.804 298.97 173.597 299.235 173.366 299.504C173.134 299.769 172.891 300.031 172.635 300.29C172.379 300.549 172.124 300.798 171.871 301.035H174.656V301.812H170.474ZM176.001 301.933C175.883 301.933 175.783 301.891 175.7 301.808C175.62 301.725 175.58 301.623 175.58 301.503C175.58 301.388 175.62 301.29 175.7 301.206C175.783 301.123 175.883 301.081 176.001 301.081C176.121 301.081 176.223 301.123 176.306 301.206C176.389 301.29 176.431 301.388 176.431 301.503C176.431 301.623 176.389 301.725 176.306 301.808C176.223 301.891 176.121 301.933 176.001 301.933ZM178.086 301.812V296.112H177.36L177.577 295.335H178.863V301.812H178.086ZM179.971 301.812V301.123C180.209 300.91 180.476 300.673 180.772 300.411C181.068 300.145 181.362 299.869 181.656 299.582C181.952 299.292 182.223 299.006 182.47 298.722C182.717 298.438 182.916 298.17 183.067 297.917C183.218 297.661 183.293 297.437 183.293 297.246C183.293 297.018 183.238 296.809 183.127 296.621C183.016 296.43 182.866 296.277 182.678 296.163C182.493 296.049 182.286 295.992 182.058 295.992C181.83 295.992 181.62 296.049 181.429 296.163C181.241 296.277 181.09 296.43 180.975 296.621C180.864 296.809 180.809 297.018 180.809 297.246H180.032C180.032 296.867 180.124 296.524 180.309 296.219C180.494 295.91 180.739 295.667 181.045 295.488C181.35 295.306 181.688 295.215 182.058 295.215C182.428 295.215 182.764 295.306 183.067 295.488C183.372 295.67 183.616 295.915 183.798 296.223C183.98 296.529 184.071 296.87 184.071 297.246C184.071 297.462 184.018 297.695 183.913 297.945C183.808 298.191 183.665 298.446 183.483 298.708C183.301 298.97 183.094 299.235 182.863 299.504C182.632 299.769 182.388 300.031 182.132 300.29C181.876 300.549 181.622 300.798 181.369 301.035H184.154V301.812H179.971Z" fill="#ADABB5"/>
<path d="M205.936 301.812V296.112H205.21L205.427 295.335H206.714V301.812H205.936ZM209.746 301.933C209.355 301.933 209.006 301.845 208.701 301.669C208.398 301.49 208.161 301.253 207.988 300.957C207.815 300.657 207.729 300.326 207.729 299.962H208.506C208.506 300.181 208.557 300.381 208.659 300.563C208.761 300.742 208.904 300.886 209.089 300.994C209.274 301.102 209.493 301.156 209.746 301.156C209.965 301.156 210.169 301.102 210.357 300.994C210.548 300.886 210.702 300.742 210.82 300.563C210.937 300.381 210.996 300.181 210.996 299.962C210.996 299.687 210.925 299.459 210.783 299.277C210.644 299.092 210.45 298.955 210.2 298.865C209.953 298.773 209.671 298.726 209.353 298.726V298.102C209.791 298.102 210.141 298.011 210.403 297.829C210.669 297.647 210.801 297.379 210.801 297.024C210.801 296.836 210.75 296.663 210.649 296.506C210.547 296.348 210.413 296.223 210.246 296.131C210.082 296.035 209.907 295.987 209.719 295.987C209.527 295.987 209.344 296.035 209.168 296.131C208.992 296.223 208.849 296.348 208.738 296.506C208.627 296.663 208.571 296.836 208.571 297.024H207.794C207.794 296.774 207.845 296.54 207.946 296.321C208.051 296.102 208.193 295.909 208.372 295.742C208.554 295.576 208.759 295.446 208.988 295.354C209.216 295.258 209.456 295.21 209.709 295.21C210.039 295.21 210.346 295.292 210.63 295.455C210.914 295.619 211.142 295.838 211.315 296.112C211.491 296.387 211.578 296.691 211.578 297.024C211.578 297.323 211.503 297.599 211.352 297.852C211.201 298.105 210.996 298.282 210.736 298.384C210.962 298.461 211.151 298.581 211.305 298.745C211.46 298.905 211.575 299.09 211.653 299.3C211.733 299.51 211.773 299.73 211.773 299.962C211.773 300.323 211.679 300.653 211.491 300.952C211.305 301.251 211.059 301.49 210.75 301.669C210.445 301.845 210.11 301.933 209.746 301.933ZM212.842 301.933C212.725 301.933 212.625 301.891 212.541 301.808C212.461 301.725 212.421 301.623 212.421 301.503C212.421 301.388 212.461 301.29 212.541 301.206C212.625 301.123 212.725 301.081 212.842 301.081C212.963 301.081 213.064 301.123 213.148 301.206C213.231 301.29 213.273 301.388 213.273 301.503C213.273 301.623 213.231 301.725 213.148 301.808C213.064 301.891 212.963 301.933 212.842 301.933ZM214.928 301.812V296.112H214.201L214.419 295.335H215.705V301.812H214.928ZM216.813 301.812V301.123C217.05 300.91 217.317 300.673 217.613 300.411C217.91 300.145 218.204 299.869 218.497 299.582C218.793 299.292 219.065 299.006 219.311 298.722C219.558 298.438 219.757 298.17 219.908 297.917C220.059 297.661 220.135 297.437 220.135 297.246C220.135 297.018 220.079 296.809 219.968 296.621C219.857 296.43 219.708 296.277 219.52 296.163C219.335 296.049 219.128 295.992 218.9 295.992C218.671 295.992 218.462 296.049 218.27 296.163C218.082 296.277 217.931 296.43 217.817 296.621C217.706 296.809 217.65 297.018 217.65 297.246H216.873C216.873 296.867 216.966 296.524 217.151 296.219C217.336 295.91 217.581 295.667 217.886 295.488C218.192 295.306 218.53 295.215 218.9 295.215C219.27 295.215 219.606 295.306 219.908 295.488C220.214 295.67 220.457 295.915 220.639 296.223C220.821 296.529 220.912 296.87 220.912 297.246C220.912 297.462 220.86 297.695 220.755 297.945C220.65 298.191 220.507 298.446 220.325 298.708C220.143 298.97 219.936 299.235 219.705 299.504C219.473 299.769 219.23 300.031 218.974 300.29C218.718 300.549 218.463 300.798 218.21 301.035H220.996V301.812H216.813Z" fill="#ADABB5"/>
<path d="M241.558 301.812V301.123C241.795 300.91 242.062 300.673 242.358 300.411C242.654 300.145 242.949 299.869 243.242 299.582C243.538 299.292 243.809 299.006 244.056 298.722C244.303 298.438 244.502 298.17 244.653 297.917C244.804 297.661 244.88 297.437 244.88 297.246C244.88 297.018 244.824 296.809 244.713 296.621C244.602 296.43 244.452 296.277 244.264 296.163C244.079 296.049 243.873 295.992 243.644 295.992C243.416 295.992 243.206 296.049 243.015 296.163C242.827 296.277 242.676 296.43 242.562 296.621C242.451 296.809 242.395 297.018 242.395 297.246H241.618C241.618 296.867 241.71 296.524 241.895 296.219C242.08 295.91 242.326 295.667 242.631 295.488C242.936 295.306 243.274 295.215 243.644 295.215C244.014 295.215 244.351 295.306 244.653 295.488C244.958 295.67 245.202 295.915 245.384 296.223C245.566 296.529 245.657 296.87 245.657 297.246C245.657 297.462 245.604 297.695 245.5 297.945C245.395 298.191 245.251 298.446 245.069 298.708C244.887 298.97 244.681 299.235 244.449 299.504C244.218 299.769 243.974 300.031 243.718 300.29C243.462 300.549 243.208 300.798 242.955 301.035H245.74V301.812H241.558ZM248.83 301.933C248.444 301.933 248.099 301.846 247.793 301.674C247.488 301.498 247.226 301.256 247.007 300.947C246.788 300.639 246.621 300.283 246.507 299.879C246.393 299.471 246.336 299.036 246.336 298.574C246.336 298.111 246.393 297.676 246.507 297.269C246.621 296.862 246.788 296.506 247.007 296.2C247.226 295.892 247.488 295.651 247.793 295.478C248.099 295.303 248.444 295.215 248.83 295.215C249.212 295.215 249.556 295.303 249.861 295.478C250.17 295.651 250.43 295.892 250.643 296.2C250.859 296.506 251.024 296.862 251.138 297.269C251.256 297.676 251.314 298.111 251.314 298.574C251.314 299.036 251.256 299.471 251.138 299.879C251.024 300.283 250.859 300.639 250.643 300.947C250.43 301.256 250.17 301.498 249.861 301.674C249.556 301.846 249.212 301.933 248.83 301.933ZM248.83 301.156C249.215 301.156 249.538 301.037 249.797 300.799C250.059 300.559 250.255 300.242 250.384 299.851C250.514 299.459 250.579 299.033 250.579 298.574C250.579 298.09 250.511 297.653 250.375 297.264C250.242 296.873 250.045 296.563 249.783 296.334C249.524 296.106 249.206 295.992 248.83 295.992C248.534 295.992 248.274 296.061 248.052 296.2C247.833 296.339 247.651 296.529 247.506 296.769C247.361 297.01 247.252 297.286 247.178 297.598C247.107 297.906 247.071 298.231 247.071 298.574C247.071 299.033 247.138 299.461 247.27 299.855C247.403 300.247 247.599 300.562 247.858 300.799C248.12 301.037 248.444 301.156 248.83 301.156ZM252.38 301.933C252.263 301.933 252.162 301.891 252.079 301.808C251.999 301.725 251.959 301.623 251.959 301.503C251.959 301.388 251.999 301.29 252.079 301.206C252.162 301.123 252.263 301.081 252.38 301.081C252.5 301.081 252.602 301.123 252.685 301.206C252.768 301.29 252.81 301.388 252.81 301.503C252.81 301.623 252.768 301.725 252.685 301.808C252.602 301.891 252.5 301.933 252.38 301.933ZM254.465 301.812V296.112H253.739L253.956 295.335H255.243V301.812H254.465ZM256.351 301.812V301.123C256.588 300.91 256.855 300.673 257.151 300.411C257.447 300.145 257.742 299.869 258.035 299.582C258.331 299.292 258.602 299.006 258.849 298.722C259.096 298.438 259.295 298.17 259.446 297.917C259.597 297.661 259.673 297.437 259.673 297.246C259.673 297.018 259.617 296.809 259.506 296.621C259.395 296.43 259.245 296.277 259.057 296.163C258.872 296.049 258.665 295.992 258.437 295.992C258.209 295.992 257.999 296.049 257.808 296.163C257.62 296.277 257.469 296.43 257.355 296.621C257.244 296.809 257.188 297.018 257.188 297.246H256.411C256.411 296.867 256.503 296.524 256.688 296.219C256.873 295.91 257.119 295.667 257.424 295.488C257.729 295.306 258.067 295.215 258.437 295.215C258.807 295.215 259.144 295.306 259.446 295.488C259.751 295.67 259.995 295.915 260.177 296.223C260.359 296.529 260.45 296.87 260.45 297.246C260.45 297.462 260.397 297.695 260.293 297.945C260.188 298.191 260.044 298.446 259.862 298.708C259.68 298.97 259.474 299.235 259.242 299.504C259.011 299.769 258.767 300.031 258.511 300.29C258.255 300.549 258.001 300.798 257.748 301.035H260.533V301.812H256.351Z" fill="#ADABB5"/>
<path d="M280.905 301.812V301.123C281.143 300.91 281.41 300.673 281.706 300.411C282.002 300.145 282.296 299.869 282.589 299.582C282.886 299.292 283.157 299.006 283.404 298.722C283.65 298.438 283.849 298.17 284.001 297.917C284.152 297.661 284.227 297.437 284.227 297.246C284.227 297.018 284.172 296.809 284.061 296.621C283.95 296.43 283.8 296.277 283.612 296.163C283.427 296.049 283.22 295.992 282.992 295.992C282.764 295.992 282.554 296.049 282.363 296.163C282.175 296.277 282.023 296.43 281.909 296.621C281.798 296.809 281.743 297.018 281.743 297.246H280.965C280.965 296.867 281.058 296.524 281.243 296.219C281.428 295.91 281.673 295.667 281.979 295.488C282.284 295.306 282.622 295.215 282.992 295.215C283.362 295.215 283.698 295.306 284.001 295.488C284.306 295.67 284.55 295.915 284.732 296.223C284.914 296.529 285.005 296.87 285.005 297.246C285.005 297.462 284.952 297.695 284.847 297.945C284.742 298.191 284.599 298.446 284.417 298.708C284.235 298.97 284.028 299.235 283.797 299.504C283.566 299.769 283.322 300.031 283.066 300.29C282.81 300.549 282.555 300.798 282.303 301.035H285.088V301.812H280.905ZM288.516 301.812V300.064H285.731V299.277L288.322 295.335H289.293V299.286H289.937V300.064H289.293V301.812H288.516ZM286.642 299.277L288.516 299.286L288.502 296.427L286.642 299.277ZM291.285 301.933C291.167 301.933 291.067 301.891 290.984 301.808C290.904 301.725 290.864 301.623 290.864 301.503C290.864 301.388 290.904 301.29 290.984 301.206C291.067 301.123 291.167 301.081 291.285 301.081C291.405 301.081 291.507 301.123 291.59 301.206C291.673 301.29 291.715 301.388 291.715 301.503C291.715 301.623 291.673 301.725 291.59 301.808C291.507 301.891 291.405 301.933 291.285 301.933ZM293.37 301.812V296.112H292.644L292.861 295.335H294.148V301.812H293.37ZM295.255 301.812V301.123C295.493 300.91 295.76 300.673 296.056 300.411C296.352 300.145 296.647 299.869 296.94 299.582C297.236 299.292 297.507 299.006 297.754 298.722C298.001 298.438 298.2 298.17 298.351 297.917C298.502 297.661 298.577 297.437 298.577 297.246C298.577 297.018 298.522 296.809 298.411 296.621C298.3 296.43 298.15 296.277 297.962 296.163C297.777 296.049 297.57 295.992 297.342 295.992C297.114 295.992 296.904 296.049 296.713 296.163C296.525 296.277 296.374 296.43 296.259 296.621C296.148 296.809 296.093 297.018 296.093 297.246H295.316C295.316 296.867 295.408 296.524 295.593 296.219C295.778 295.91 296.023 295.667 296.329 295.488C296.634 295.306 296.972 295.215 297.342 295.215C297.712 295.215 298.048 295.306 298.351 295.488C298.656 295.67 298.9 295.915 299.082 296.223C299.264 296.529 299.355 296.87 299.355 297.246C299.355 297.462 299.302 297.695 299.197 297.945C299.093 298.191 298.949 298.446 298.767 298.708C298.585 298.97 298.378 299.235 298.147 299.504C297.916 299.769 297.672 300.031 297.416 300.29C297.16 300.549 296.906 300.798 296.653 301.035H299.438V301.812H295.255Z" fill="#ADABB5"/>
<path d="M18.9258 -0.412109V279.716" stroke="#201F24" stroke-width="0.841226" stroke-dasharray="3.36 3.36"/>
<path d="M58.4648 -0.412109V279.716" stroke="#201F24" stroke-width="0.841226" stroke-dasharray="3.36 3.36"/>
<path d="M98 -0.412109V279.716" stroke="#201F24" stroke-width="0.841226" stroke-dasharray="3.36 3.36"/>
<path d="M137.539 -0.412109V279.716" stroke="#201F24" stroke-width="0.841226" stroke-dasharray="3.36 3.36"/>
<path d="M177.078 -0.412109V279.716" stroke="#201F24" stroke-width="0.841226" stroke-dasharray="3.36 3.36"/>
<path d="M216.613 -0.412109V279.716" stroke="#201F24" stroke-width="0.841226" stroke-dasharray="3.36 3.36"/>
<path d="M256.152 -0.412109V279.716" stroke="#201F24" stroke-width="0.841226" stroke-dasharray="3.36 3.36"/>
<path d="M295.688 -0.412109V279.716" stroke="#201F24" stroke-width="0.841226" stroke-dasharray="3.36 3.36"/>
<path d="M34.773 112.4C29.5457 104.241 24.5152 101.369 21.4394 100.7C20.2454 100.441 19.3438 101.481 19.3438 102.702V280.557C19.3438 281.951 20.4736 283.081 21.8674 283.081H291.901C293.295 283.081 294.425 281.951 294.425 280.557V239.201C294.425 238.252 293.894 237.383 293.046 236.958C285.924 233.391 272.48 227.109 266.211 225.846C257.835 224.159 254.309 217.833 247.696 210.242C241.084 202.651 239.545 203.184 235.959 198.538C235.26 197.697 226.706 180.872 214.508 177.928C210.515 176.964 193.477 186.48 185.065 192.229C178.85 195.958 179.597 193.911 174.55 196.014C167.534 198.937 154.482 185.454 151.837 181.293C150.501 179.192 149.39 177.769 145.422 169.334C141.455 160.899 136.416 156.477 133.33 156.477C123.384 156.477 116.327 161.743 109.274 169.756C102.221 177.769 97.9197 179.617 92.9631 177.769C90.0067 176.666 81.3963 171.237 76.5471 156.477C71.6979 141.716 71.2875 142.751 68.2764 138.547C64.3089 133.009 59.9005 130.113 53.288 129.269C46.6755 128.426 43.1488 125.474 34.773 112.4Z" fill="url(#paint0_linear_3483_193096)"/>
<path d="M21.0273 100.591C23.3785 100.169 29.7559 101.941 36.4566 112.4C44.8324 125.474 48.3591 128.426 54.9716 129.269C61.5841 130.113 65.9925 133.009 69.96 138.547C72.9711 142.751 73.3815 141.716 78.2307 156.477C83.0799 171.237 91.6903 176.666 94.6467 177.769C99.6033 179.617 103.904 177.769 110.958 169.756C118.011 161.743 125.068 156.477 135.013 156.477C138.099 156.477 143.139 160.899 147.106 169.334C151.074 177.769 152.185 179.192 153.52 181.293C156.165 185.454 169.218 198.937 176.233 196.014C181.281 193.911 180.534 195.958 186.749 192.229C195.161 186.48 212.199 176.964 216.192 177.928C228.389 180.872 236.944 197.697 237.643 198.538C241.229 203.184 242.767 202.651 249.38 210.242C255.992 217.833 259.519 224.159 267.895 225.846C274.595 227.196 289.496 234.281 296.108 237.655" stroke="#A888FC" stroke-width="1.68245"/>
<circle cx="21.8702" cy="99.6944" r="3.60525" fill="white" stroke="#9369F7" stroke-width="1.20175"/>
<circle cx="58.8819" cy="129.974" r="3.78552" fill="white" stroke="#9369F7" stroke-width="0.841226"/>
<circle cx="98.421" cy="177.929" r="3.78552" fill="white" stroke="#9369F7" stroke-width="0.841226"/>
<circle cx="137.956" cy="156.896" r="3.78552" fill="white" stroke="#9369F7" stroke-width="0.841226"/>
<circle cx="177.487" cy="196.435" r="3.78552" fill="white" stroke="#9369F7" stroke-width="0.841226"/>
<circle cx="217.03" cy="177.929" r="3.78552" fill="white" stroke="#9369F7" stroke-width="0.841226"/>
<circle cx="256.565" cy="218.306" r="3.78552" fill="white" stroke="#9369F7" stroke-width="0.841226"/>
<circle cx="295.261" cy="237.657" r="3.78552" fill="white" stroke="#9369F7" stroke-width="0.841226"/>
<path d="M17.5974 88.2609C17.2119 88.2609 16.8602 88.173 16.5425 87.9972C16.2279 87.8214 15.9765 87.587 15.7884 87.2939C15.6033 86.9978 15.5108 86.6709 15.5108 86.3131C15.5108 85.9799 15.5987 85.6746 15.7745 85.397C15.9503 85.1163 16.1801 84.8942 16.4639 84.7307C16.2325 84.5827 16.0413 84.3868 15.8902 84.1431C15.7421 83.8964 15.6681 83.6296 15.6681 83.3427C15.6681 83.0096 15.7544 82.7073 15.9272 82.4359C16.103 82.1644 16.3359 81.9485 16.6258 81.7881C16.9188 81.6246 17.2427 81.5429 17.5974 81.5429C17.9521 81.5429 18.2745 81.6246 18.5644 81.7881C18.8574 81.9485 19.0903 82.1644 19.2631 82.4359C19.4389 82.7073 19.5268 83.0096 19.5268 83.3427C19.5268 83.6296 19.4527 83.8964 19.3047 84.1431C19.1566 84.3868 18.9639 84.5827 18.7263 84.7307C19.0194 84.8942 19.2523 85.1163 19.425 85.397C19.6008 85.6746 19.6887 85.9799 19.6887 86.3131C19.6887 86.6678 19.5946 86.9932 19.4065 87.2893C19.2183 87.5854 18.9654 87.8214 18.6477 87.9972C18.3331 88.173 17.983 88.2609 17.5974 88.2609ZM17.5974 87.4836C17.8318 87.4836 18.0431 87.4312 18.2313 87.3263C18.4225 87.2214 18.5752 87.0811 18.6893 86.9053C18.8035 86.7264 18.8605 86.529 18.8605 86.3131C18.8605 86.0941 18.8035 85.8967 18.6893 85.7208C18.5752 85.545 18.4225 85.4047 18.2313 85.2998C18.0431 85.1949 17.8318 85.1425 17.5974 85.1425C17.3661 85.1425 17.1548 85.1949 16.9636 85.2998C16.7723 85.4047 16.6196 85.545 16.5055 85.7208C16.3914 85.8967 16.3343 86.0941 16.3343 86.3131C16.3343 86.529 16.3914 86.7264 16.5055 86.9053C16.6196 87.0811 16.7723 87.2214 16.9636 87.3263C17.1548 87.4312 17.3661 87.4836 17.5974 87.4836ZM17.5974 84.3652C17.801 84.3652 17.9861 84.3189 18.1526 84.2264C18.3192 84.1339 18.4518 84.0105 18.5505 83.8563C18.6523 83.702 18.7032 83.5308 18.7032 83.3427C18.7032 83.1515 18.6523 82.9803 18.5505 82.8291C18.4518 82.6749 18.3192 82.5515 18.1526 82.459C17.9861 82.3665 17.801 82.3202 17.5974 82.3202C17.3938 82.3202 17.2088 82.3665 17.0422 82.459C16.8757 82.5515 16.7415 82.6749 16.6397 82.8291C16.541 82.9803 16.4916 83.1515 16.4916 83.3427C16.4916 83.5308 16.541 83.702 16.6397 83.8563C16.7415 84.0105 16.8757 84.1339 17.0422 84.2264C17.2088 84.3189 17.3938 84.3652 17.5974 84.3652ZM20.6719 88.1406L23.9569 82.4405H20.2416V81.6632H24.8545V82.4405L21.5602 88.1406H20.6719ZM25.8269 88.2609C25.7097 88.2609 25.6094 88.2193 25.5261 88.136C25.4459 88.0527 25.4058 87.9509 25.4058 87.8306C25.4058 87.7165 25.4459 87.6178 25.5261 87.5345C25.6094 87.4512 25.7097 87.4096 25.8269 87.4096C25.9472 87.4096 26.049 87.4512 26.1322 87.5345C26.2155 87.6178 26.2572 87.7165 26.2572 87.8306C26.2572 87.9509 26.2155 88.0527 26.1322 88.136C26.049 88.2193 25.9472 88.2609 25.8269 88.2609ZM29.2727 88.2609C28.8872 88.2609 28.5355 88.173 28.2178 87.9972C27.9032 87.8214 27.6518 87.587 27.4637 87.2939C27.2786 86.9978 27.1861 86.6709 27.1861 86.3131C27.1861 85.9799 27.274 85.6746 27.4498 85.397C27.6256 85.1163 27.8554 84.8942 28.1392 84.7307C27.9078 84.5827 27.7166 84.3868 27.5654 84.1431C27.4174 83.8964 27.3434 83.6296 27.3434 83.3427C27.3434 83.0096 27.4297 82.7073 27.6025 82.4359C27.7783 82.1644 28.0112 81.9485 28.3011 81.7881C28.5941 81.6246 28.918 81.5429 29.2727 81.5429C29.6274 81.5429 29.9498 81.6246 30.2397 81.7881C30.5327 81.9485 30.7656 82.1644 30.9383 82.4359C31.1142 82.7073 31.2021 83.0096 31.2021 83.3427C31.2021 83.6296 31.128 83.8964 30.98 84.1431C30.8319 84.3868 30.6391 84.5827 30.4016 84.7307C30.6947 84.8942 30.9275 85.1163 31.1003 85.397C31.2761 85.6746 31.364 85.9799 31.364 86.3131C31.364 86.6678 31.2699 86.9932 31.0818 87.2893C30.8936 87.5854 30.6407 87.8214 30.323 87.9972C30.0084 88.173 29.6583 88.2609 29.2727 88.2609ZM29.2727 87.4836C29.5071 87.4836 29.7184 87.4312 29.9066 87.3263C30.0978 87.2214 30.2505 87.0811 30.3646 86.9053C30.4788 86.7264 30.5358 86.529 30.5358 86.3131C30.5358 86.0941 30.4788 85.8967 30.3646 85.7208C30.2505 85.545 30.0978 85.4047 29.9066 85.2998C29.7184 85.1949 29.5071 85.1425 29.2727 85.1425C29.0414 85.1425 28.8301 85.1949 28.6389 85.2998C28.4476 85.4047 28.2949 85.545 28.1808 85.7208C28.0667 85.8967 28.0096 86.0941 28.0096 86.3131C28.0096 86.529 28.0667 86.7264 28.1808 86.9053C28.2949 87.0811 28.4476 87.2214 28.6389 87.3263C28.8301 87.4312 29.0414 87.4836 29.2727 87.4836ZM29.2727 84.3652C29.4763 84.3652 29.6614 84.3189 29.8279 84.2264C29.9945 84.1339 30.1271 84.0105 30.2258 83.8563C30.3276 83.702 30.3785 83.5308 30.3785 83.3427C30.3785 83.1515 30.3276 82.9803 30.2258 82.8291C30.1271 82.6749 29.9945 82.5515 29.8279 82.459C29.6614 82.3665 29.4763 82.3202 29.2727 82.3202C29.0691 82.3202 28.8841 82.3665 28.7175 82.459C28.5509 82.5515 28.4168 82.6749 28.315 82.8291C28.2163 82.9803 28.1669 83.1515 28.1669 83.3427C28.1669 83.5308 28.2163 83.702 28.315 83.8563C28.4168 84.0105 28.5509 84.1339 28.7175 84.2264C28.8841 84.3189 29.0691 84.3652 29.2727 84.3652Z" fill="#B9ACD3"/>
<path d="M51.088 118.424L54.373 112.724H50.6577V111.946H55.2706V112.724L51.9763 118.424H51.088ZM57.9086 118.544C57.5231 118.544 57.1714 118.456 56.8537 118.28C56.5391 118.105 56.2877 117.87 56.0996 117.577C55.9145 117.281 55.822 116.954 55.822 116.596C55.822 116.263 55.9099 115.958 56.0857 115.68C56.2615 115.399 56.4913 115.177 56.7751 115.014C56.5437 114.866 56.3525 114.67 56.2014 114.426C56.0533 114.18 55.9793 113.913 55.9793 113.626C55.9793 113.293 56.0656 112.99 56.2384 112.719C56.4142 112.448 56.6471 112.232 56.937 112.071C57.23 111.908 57.5539 111.826 57.9086 111.826C58.2633 111.826 58.5857 111.908 58.8756 112.071C59.1686 112.232 59.4015 112.448 59.5743 112.719C59.7501 112.99 59.838 113.293 59.838 113.626C59.838 113.913 59.7639 114.18 59.6159 114.426C59.4678 114.67 59.2751 114.866 59.0375 115.014C59.3306 115.177 59.5635 115.399 59.7362 115.68C59.912 115.958 59.9999 116.263 59.9999 116.596C59.9999 116.951 59.9058 117.276 59.7177 117.573C59.5295 117.869 59.2766 118.105 58.9589 118.28C58.6443 118.456 58.2942 118.544 57.9086 118.544ZM57.9086 117.767C58.143 117.767 58.3543 117.714 58.5425 117.61C58.7337 117.505 58.8864 117.364 59.0005 117.188C59.1147 117.01 59.1717 116.812 59.1717 116.596C59.1717 116.377 59.1147 116.18 59.0005 116.004C58.8864 115.828 58.7337 115.688 58.5425 115.583C58.3543 115.478 58.143 115.426 57.9086 115.426C57.6773 115.426 57.466 115.478 57.2748 115.583C57.0835 115.688 56.9308 115.828 56.8167 116.004C56.7026 116.18 56.6455 116.377 56.6455 116.596C56.6455 116.812 56.7026 117.01 56.8167 117.188C56.9308 117.364 57.0835 117.505 57.2748 117.61C57.466 117.714 57.6773 117.767 57.9086 117.767ZM57.9086 114.648C58.1122 114.648 58.2973 114.602 58.4638 114.51C58.6304 114.417 58.763 114.294 58.8617 114.139C58.9635 113.985 59.0144 113.814 59.0144 113.626C59.0144 113.435 58.9635 113.263 58.8617 113.112C58.763 112.958 58.6304 112.835 58.4638 112.742C58.2973 112.65 58.1122 112.603 57.9086 112.603C57.705 112.603 57.52 112.65 57.3534 112.742C57.1869 112.835 57.0527 112.958 56.9509 113.112C56.8522 113.263 56.8028 113.435 56.8028 113.626C56.8028 113.814 56.8522 113.985 56.9509 114.139C57.0527 114.294 57.1869 114.417 57.3534 114.51C57.52 114.602 57.705 114.648 57.9086 114.648ZM61.1589 118.544C61.0417 118.544 60.9415 118.502 60.8582 118.419C60.778 118.336 60.7379 118.234 60.7379 118.114C60.7379 118 60.778 117.901 60.8582 117.818C60.9415 117.734 61.0417 117.693 61.1589 117.693C61.2792 117.693 61.381 117.734 61.4643 117.818C61.5476 117.901 61.5892 118 61.5892 118.114C61.5892 118.234 61.5476 118.336 61.4643 118.419C61.381 118.502 61.2792 118.544 61.1589 118.544ZM64.6233 118.544C64.2223 118.544 63.8583 118.447 63.5313 118.253C63.2044 118.058 62.9453 117.799 62.7541 117.475C62.5659 117.148 62.4718 116.789 62.4718 116.397H63.2491C63.2491 116.647 63.3108 116.877 63.4342 117.087C63.5576 117.293 63.7226 117.458 63.9292 117.582C64.139 117.705 64.3703 117.767 64.6233 117.767C64.8731 117.767 65.1014 117.705 65.308 117.582C65.5147 117.458 65.6797 117.293 65.8031 117.087C65.9265 116.877 65.9881 116.647 65.9881 116.397C65.9881 116.147 65.9295 115.918 65.8123 115.708C65.6982 115.498 65.5301 115.332 65.308 115.208C65.0859 115.082 64.816 115.019 64.4983 115.019H62.9021L63.5313 111.946H66.6035V112.724H64.1606L63.8598 114.241L64.5307 114.246C64.9718 114.255 65.3589 114.354 65.692 114.542C66.0282 114.727 66.2904 114.98 66.4786 115.301C66.6698 115.618 66.7654 115.984 66.7654 116.397C66.7654 116.69 66.7099 116.968 66.5989 117.23C66.4878 117.489 66.3336 117.717 66.1362 117.915C65.9388 118.112 65.7105 118.267 65.4514 118.378C65.1954 118.489 64.9194 118.544 64.6233 118.544Z" fill="#B9ACD3"/>
<path d="M93.323 166.497C92.9127 166.497 92.538 166.395 92.1987 166.192C91.8594 165.988 91.5879 165.717 91.3844 165.378C91.1808 165.035 91.079 164.657 91.079 164.244C91.079 164.013 91.1052 163.811 91.1576 163.638C91.2132 163.465 91.2949 163.279 91.4029 163.078L93.2351 159.9H94.1373L92.8279 162.171C93.0932 162.088 93.3569 162.059 93.6191 162.083C93.8813 162.108 94.1296 162.179 94.364 162.296C94.6015 162.413 94.8112 162.568 94.9932 162.759C95.1752 162.95 95.3186 163.172 95.4235 163.425C95.5284 163.675 95.5808 163.948 95.5808 164.244C95.5808 164.556 95.5207 164.847 95.4004 165.118C95.2832 165.39 95.1212 165.629 94.9146 165.836C94.711 166.042 94.4719 166.204 94.1974 166.321C93.9229 166.439 93.6314 166.497 93.323 166.497ZM93.323 165.72C93.6067 165.72 93.8597 165.651 94.0817 165.512C94.3069 165.373 94.4827 165.191 94.6092 164.966C94.7387 164.741 94.8035 164.5 94.8035 164.244C94.8035 163.976 94.7372 163.73 94.6046 163.508C94.475 163.286 94.2977 163.109 94.0725 162.976C93.8504 162.841 93.6037 162.773 93.3322 162.773C93.0484 162.773 92.7955 162.842 92.5734 162.981C92.3513 163.12 92.1755 163.3 92.046 163.522C91.9195 163.744 91.8563 163.985 91.8563 164.244C91.8563 164.525 91.9241 164.776 92.0599 164.998C92.1956 165.22 92.3745 165.396 92.5966 165.526C92.8217 165.655 93.0639 165.72 93.323 165.72ZM97.4039 166.377L98.7873 163.99C98.4634 164.085 98.1442 164.102 97.8296 164.04C97.518 163.976 97.2342 163.849 96.9782 163.661C96.7222 163.47 96.5171 163.229 96.3629 162.939C96.2087 162.649 96.1315 162.327 96.1315 161.972C96.1315 161.67 96.1886 161.386 96.3027 161.121C96.4169 160.856 96.5742 160.623 96.7747 160.422C96.9751 160.222 97.2065 160.065 97.4687 159.95C97.7339 159.836 98.0177 159.779 98.32 159.779C98.721 159.779 99.0849 159.878 99.4119 160.075C99.7419 160.273 100.006 160.538 100.203 160.871C100.404 161.201 100.504 161.568 100.504 161.972C100.504 162.191 100.476 162.386 100.421 162.555C100.368 162.722 100.288 162.904 100.18 163.101L98.3015 166.377H97.4039ZM98.3107 163.383C98.5853 163.383 98.8289 163.319 99.0418 163.189C99.2577 163.056 99.4258 162.882 99.5461 162.666C99.6695 162.45 99.7311 162.219 99.7311 161.972C99.7311 161.704 99.6664 161.463 99.5368 161.251C99.4073 161.035 99.2345 160.865 99.0186 160.742C98.8027 160.615 98.5698 160.552 98.32 160.552C98.0455 160.552 97.8003 160.618 97.5843 160.751C97.3715 160.883 97.2034 161.059 97.08 161.278C96.9597 161.494 96.8996 161.726 96.8996 161.972C96.8996 162.231 96.9613 162.469 97.0846 162.685C97.2111 162.898 97.3808 163.067 97.5936 163.194C97.8095 163.32 98.0486 163.383 98.3107 163.383ZM101.57 166.497C101.453 166.497 101.353 166.456 101.269 166.372C101.189 166.289 101.149 166.187 101.149 166.067C101.149 165.953 101.189 165.854 101.269 165.771C101.353 165.688 101.453 165.646 101.57 165.646C101.69 165.646 101.792 165.688 101.875 165.771C101.959 165.854 102 165.953 102 166.067C102 166.187 101.959 166.289 101.875 166.372C101.792 166.456 101.69 166.497 101.57 166.497ZM105.715 166.377V164.628H102.929V163.841L105.52 159.9H106.492V163.851H107.135V164.628H106.492V166.377H105.715ZM103.841 163.841L105.715 163.851L105.701 160.991L103.841 163.841Z" fill="#B9ACD3"/>
<path d="M132.682 146.186L135.967 140.485H132.251V139.708H136.864V140.485L133.57 146.186H132.682ZM139.442 146.186V144.437H136.657V143.65L139.248 139.708H140.219V143.659H140.862V144.437H140.219V146.186H139.442ZM137.568 143.65L139.442 143.659L139.428 140.8L137.568 143.65ZM142.21 146.306C142.093 146.306 141.993 146.264 141.91 146.181C141.83 146.098 141.789 145.996 141.789 145.876C141.789 145.761 141.83 145.663 141.91 145.579C141.993 145.496 142.093 145.455 142.21 145.455C142.331 145.455 142.433 145.496 142.516 145.579C142.599 145.663 142.641 145.761 142.641 145.876C142.641 145.996 142.599 146.098 142.516 146.181C142.433 146.264 142.331 146.306 142.21 146.306ZM144.296 146.186V140.485H143.57L143.787 139.708H145.073V146.186H144.296Z" fill="#B9ACD3"/>
<path d="M172.401 184.999C171.991 184.999 171.616 184.897 171.277 184.694C170.937 184.49 170.666 184.219 170.462 183.88C170.259 183.537 170.157 183.159 170.157 182.746C170.157 182.515 170.183 182.313 170.236 182.14C170.291 181.967 170.373 181.781 170.481 181.58L172.313 178.401H173.215L171.906 180.673C172.171 180.59 172.435 180.561 172.697 180.585C172.959 180.61 173.208 180.681 173.442 180.798C173.68 180.915 173.889 181.07 174.071 181.261C174.253 181.452 174.397 181.674 174.502 181.927C174.607 182.177 174.659 182.45 174.659 182.746C174.659 183.058 174.599 183.349 174.478 183.62C174.361 183.892 174.199 184.131 173.993 184.338C173.789 184.544 173.55 184.706 173.276 184.823C173.001 184.941 172.71 184.999 172.401 184.999ZM172.401 184.222C172.685 184.222 172.938 184.153 173.16 184.014C173.385 183.875 173.561 183.693 173.687 183.468C173.817 183.243 173.882 183.002 173.882 182.746C173.882 182.478 173.815 182.232 173.683 182.01C173.553 181.788 173.376 181.611 173.151 181.478C172.929 181.343 172.682 181.275 172.41 181.275C172.127 181.275 171.874 181.344 171.652 181.483C171.429 181.622 171.254 181.802 171.124 182.024C170.998 182.246 170.934 182.487 170.934 182.746C170.934 183.027 171.002 183.278 171.138 183.5C171.274 183.722 171.453 183.898 171.675 184.028C171.9 184.157 172.142 184.222 172.401 184.222ZM175.547 184.879L178.832 179.179H175.117V178.401H179.73V179.179L176.436 184.879H175.547ZM180.702 184.999C180.585 184.999 180.485 184.958 180.402 184.874C180.321 184.791 180.281 184.689 180.281 184.569C180.281 184.455 180.321 184.356 180.402 184.273C180.485 184.19 180.585 184.148 180.702 184.148C180.823 184.148 180.924 184.19 181.008 184.273C181.091 184.356 181.133 184.455 181.133 184.569C181.133 184.689 181.091 184.791 181.008 184.874C180.924 184.958 180.823 184.999 180.702 184.999ZM183.986 184.999C183.595 184.999 183.246 184.911 182.941 184.735C182.638 184.557 182.401 184.319 182.228 184.023C182.055 183.724 181.969 183.392 181.969 183.028H182.746C182.746 183.247 182.797 183.448 182.899 183.63C183.001 183.809 183.144 183.952 183.329 184.06C183.514 184.168 183.733 184.222 183.986 184.222C184.205 184.222 184.409 184.168 184.597 184.06C184.788 183.952 184.942 183.809 185.06 183.63C185.177 183.448 185.236 183.247 185.236 183.028C185.236 182.754 185.165 182.525 185.023 182.343C184.884 182.158 184.69 182.021 184.44 181.932C184.193 181.839 183.911 181.793 183.593 181.793V181.168C184.031 181.168 184.381 181.077 184.643 180.895C184.909 180.713 185.041 180.445 185.041 180.09C185.041 179.902 184.99 179.729 184.889 179.572C184.787 179.415 184.653 179.29 184.486 179.197C184.323 179.102 184.147 179.054 183.959 179.054C183.767 179.054 183.584 179.102 183.408 179.197C183.232 179.29 183.089 179.415 182.978 179.572C182.867 179.729 182.811 179.902 182.811 180.09H182.034C182.034 179.84 182.085 179.606 182.186 179.387C182.291 179.168 182.433 178.975 182.612 178.809C182.794 178.642 182.999 178.513 183.228 178.42C183.456 178.324 183.696 178.277 183.949 178.277C184.279 178.277 184.586 178.358 184.87 178.522C185.154 178.685 185.382 178.904 185.555 179.179C185.731 179.453 185.818 179.757 185.818 180.09C185.818 180.389 185.743 180.665 185.592 180.918C185.441 181.171 185.236 181.349 184.976 181.45C185.202 181.528 185.391 181.648 185.546 181.811C185.7 181.972 185.815 182.157 185.893 182.367C185.973 182.576 186.013 182.797 186.013 183.028C186.013 183.389 185.919 183.719 185.731 184.018C185.546 184.318 185.299 184.557 184.99 184.735C184.685 184.911 184.35 184.999 183.986 184.999Z" fill="#B9ACD3"/>
<path d="M211.092 167.333C210.682 167.333 210.307 167.231 209.968 167.028C209.629 166.824 209.357 166.553 209.154 166.214C208.95 165.871 208.849 165.493 208.849 165.08C208.849 164.849 208.875 164.647 208.927 164.474C208.983 164.301 209.064 164.115 209.172 163.914L211.005 160.735H211.907L210.597 163.007C210.863 162.924 211.126 162.895 211.389 162.919C211.651 162.944 211.899 163.015 212.134 163.132C212.371 163.249 212.581 163.404 212.763 163.595C212.945 163.786 213.088 164.008 213.193 164.261C213.298 164.511 213.35 164.784 213.35 165.08C213.35 165.391 213.29 165.683 213.17 165.954C213.053 166.226 212.891 166.465 212.684 166.672C212.481 166.878 212.241 167.04 211.967 167.157C211.692 167.275 211.401 167.333 211.092 167.333ZM211.092 166.556C211.376 166.556 211.629 166.486 211.851 166.348C212.076 166.209 212.252 166.027 212.379 165.802C212.508 165.577 212.573 165.336 212.573 165.08C212.573 164.812 212.507 164.566 212.374 164.344C212.245 164.122 212.067 163.945 211.842 163.812C211.62 163.677 211.373 163.609 211.102 163.609C210.818 163.609 210.565 163.678 210.343 163.817C210.121 163.956 209.945 164.136 209.816 164.358C209.689 164.58 209.626 164.821 209.626 165.08C209.626 165.361 209.694 165.612 209.829 165.834C209.965 166.056 210.144 166.232 210.366 166.362C210.591 166.491 210.833 166.556 211.092 166.556ZM216.08 167.333C215.695 167.333 215.343 167.245 215.025 167.069C214.711 166.894 214.459 166.659 214.271 166.366C214.086 166.07 213.994 165.743 213.994 165.385C213.994 165.052 214.082 164.747 214.257 164.469C214.433 164.189 214.663 163.966 214.947 163.803C214.715 163.655 214.524 163.459 214.373 163.215C214.225 162.969 214.151 162.702 214.151 162.415C214.151 162.082 214.237 161.78 214.41 161.508C214.586 161.237 214.819 161.021 215.109 160.86C215.402 160.697 215.726 160.615 216.08 160.615C216.435 160.615 216.757 160.697 217.047 160.86C217.34 161.021 217.573 161.237 217.746 161.508C217.922 161.78 218.01 162.082 218.01 162.415C218.01 162.702 217.936 162.969 217.788 163.215C217.639 163.459 217.447 163.655 217.209 163.803C217.502 163.966 217.735 164.189 217.908 164.469C218.084 164.747 218.172 165.052 218.172 165.385C218.172 165.74 218.077 166.065 217.889 166.362C217.701 166.658 217.448 166.894 217.131 167.069C216.816 167.245 216.466 167.333 216.08 167.333ZM216.08 166.556C216.315 166.556 216.526 166.503 216.714 166.399C216.905 166.294 217.058 166.153 217.172 165.978C217.286 165.799 217.343 165.601 217.343 165.385C217.343 165.166 217.286 164.969 217.172 164.793C217.058 164.617 216.905 164.477 216.714 164.372C216.526 164.267 216.315 164.215 216.08 164.215C215.849 164.215 215.638 164.267 215.446 164.372C215.255 164.477 215.102 164.617 214.988 164.793C214.874 164.969 214.817 165.166 214.817 165.385C214.817 165.601 214.874 165.799 214.988 165.978C215.102 166.153 215.255 166.294 215.446 166.399C215.638 166.503 215.849 166.556 216.08 166.556ZM216.08 163.437C216.284 163.437 216.469 163.391 216.635 163.299C216.802 163.206 216.935 163.083 217.033 162.929C217.135 162.774 217.186 162.603 217.186 162.415C217.186 162.224 217.135 162.053 217.033 161.901C216.935 161.747 216.802 161.624 216.635 161.531C216.469 161.439 216.284 161.392 216.08 161.392C215.877 161.392 215.692 161.439 215.525 161.531C215.358 161.624 215.224 161.747 215.123 161.901C215.024 162.053 214.974 162.224 214.974 162.415C214.974 162.603 215.024 162.774 215.123 162.929C215.224 163.083 215.358 163.206 215.525 163.299C215.692 163.391 215.877 163.437 216.08 163.437ZM219.331 167.333C219.213 167.333 219.113 167.292 219.03 167.208C218.95 167.125 218.91 167.023 218.91 166.903C218.91 166.789 218.95 166.69 219.03 166.607C219.113 166.524 219.213 166.482 219.331 166.482C219.451 166.482 219.553 166.524 219.636 166.607C219.719 166.69 219.761 166.789 219.761 166.903C219.761 167.023 219.719 167.125 219.636 167.208C219.553 167.292 219.451 167.333 219.331 167.333ZM220.935 167.213L224.22 161.513H220.505V160.735H225.118V161.513L221.823 167.213H220.935Z" fill="#B9ACD3"/>
<path d="M249.796 203.507C249.385 203.507 249.011 203.405 248.671 203.202C248.332 202.998 248.061 202.727 247.857 202.387C247.653 202.045 247.552 201.667 247.552 201.254C247.552 201.022 247.578 200.82 247.63 200.648C247.686 200.475 247.768 200.288 247.876 200.088L249.708 196.909H250.61L249.301 199.181C249.566 199.098 249.83 199.068 250.092 199.093C250.354 199.118 250.602 199.189 250.837 199.306C251.074 199.423 251.284 199.577 251.466 199.769C251.648 199.96 251.791 200.182 251.896 200.435C252.001 200.685 252.053 200.958 252.053 201.254C252.053 201.565 251.993 201.857 251.873 202.128C251.756 202.4 251.594 202.639 251.387 202.845C251.184 203.052 250.945 203.214 250.67 203.331C250.396 203.448 250.104 203.507 249.796 203.507ZM249.796 202.73C250.079 202.73 250.332 202.66 250.554 202.522C250.78 202.383 250.955 202.201 251.082 201.976C251.211 201.75 251.276 201.51 251.276 201.254C251.276 200.985 251.21 200.74 251.077 200.518C250.948 200.296 250.77 200.119 250.545 199.986C250.323 199.85 250.076 199.782 249.805 199.782C249.521 199.782 249.268 199.852 249.046 199.991C248.824 200.129 248.648 200.31 248.519 200.532C248.392 200.754 248.329 200.995 248.329 201.254C248.329 201.534 248.397 201.786 248.533 202.008C248.668 202.23 248.847 202.406 249.069 202.535C249.294 202.665 249.537 202.73 249.796 202.73ZM255.482 203.387V201.638H252.697V200.851L255.288 196.909H256.259V200.861H256.902V201.638H256.259V203.387H255.482ZM253.608 200.851L255.482 200.861L255.468 198.001L253.608 200.851ZM258.251 203.507C258.133 203.507 258.033 203.465 257.95 203.382C257.87 203.299 257.83 203.197 257.83 203.077C257.83 202.963 257.87 202.864 257.95 202.781C258.033 202.697 258.133 202.656 258.251 202.656C258.371 202.656 258.473 202.697 258.556 202.781C258.639 202.864 258.681 202.963 258.681 203.077C258.681 203.197 258.639 203.299 258.556 203.382C258.473 203.465 258.371 203.507 258.251 203.507ZM259.855 203.387L263.14 197.687H259.425V196.909H264.038V197.687L260.743 203.387H259.855Z" fill="#B9ACD3"/>
<path d="M288.491 226.22C288.09 226.22 287.726 226.123 287.399 225.928C287.072 225.734 286.813 225.475 286.622 225.151C286.434 224.824 286.339 224.465 286.339 224.073H287.117C287.117 224.323 287.178 224.553 287.302 224.762C287.425 224.969 287.59 225.134 287.797 225.258C288.007 225.381 288.238 225.443 288.491 225.443C288.741 225.443 288.969 225.381 289.176 225.258C289.382 225.134 289.547 224.969 289.671 224.762C289.794 224.553 289.856 224.323 289.856 224.073C289.856 223.823 289.797 223.593 289.68 223.384C289.566 223.174 289.398 223.007 289.176 222.884C288.954 222.758 288.684 222.694 288.366 222.694H286.77L287.399 219.622H290.471V220.399H288.028L287.728 221.917L288.398 221.922C288.839 221.931 289.227 222.03 289.56 222.218C289.896 222.403 290.158 222.656 290.346 222.977C290.537 223.294 290.633 223.66 290.633 224.073C290.633 224.366 290.578 224.644 290.467 224.906C290.356 225.165 290.201 225.393 290.004 225.591C289.806 225.788 289.578 225.942 289.319 226.053C289.063 226.164 288.787 226.22 288.491 226.22ZM292.735 226.1L294.118 223.712C293.794 223.808 293.475 223.825 293.16 223.763C292.849 223.698 292.565 223.572 292.309 223.384C292.053 223.192 291.848 222.952 291.694 222.662C291.539 222.372 291.462 222.05 291.462 221.695C291.462 221.393 291.519 221.109 291.633 220.844C291.747 220.578 291.905 220.345 292.105 220.145C292.306 219.945 292.537 219.787 292.799 219.673C293.065 219.559 293.348 219.502 293.651 219.502C294.052 219.502 294.416 219.601 294.743 219.798C295.073 219.995 295.336 220.261 295.534 220.594C295.734 220.924 295.834 221.291 295.834 221.695C295.834 221.914 295.807 222.108 295.751 222.278C295.699 222.444 295.619 222.626 295.511 222.824L293.632 226.1H292.735ZM293.641 223.106C293.916 223.106 294.16 223.041 294.372 222.912C294.588 222.779 294.756 222.605 294.877 222.389C295 222.173 295.062 221.942 295.062 221.695C295.062 221.427 294.997 221.186 294.867 220.973C294.738 220.757 294.565 220.588 294.349 220.464C294.133 220.338 293.9 220.275 293.651 220.275C293.376 220.275 293.131 220.341 292.915 220.473C292.702 220.606 292.534 220.782 292.411 221.001C292.29 221.217 292.23 221.448 292.23 221.695C292.23 221.954 292.292 222.192 292.415 222.407C292.542 222.62 292.711 222.79 292.924 222.916C293.14 223.043 293.379 223.106 293.641 223.106ZM296.901 226.22C296.783 226.22 296.683 226.178 296.6 226.095C296.52 226.012 296.48 225.91 296.48 225.79C296.48 225.675 296.52 225.577 296.6 225.494C296.683 225.41 296.783 225.369 296.901 225.369C297.021 225.369 297.123 225.41 297.206 225.494C297.289 225.577 297.331 225.675 297.331 225.79C297.331 225.91 297.289 226.012 297.206 226.095C297.123 226.178 297.021 226.22 296.901 226.22ZM300.185 226.22C299.793 226.22 299.444 226.132 299.139 225.956C298.837 225.777 298.599 225.54 298.426 225.244C298.254 224.944 298.167 224.613 298.167 224.249H298.945C298.945 224.468 298.996 224.668 299.097 224.85C299.199 225.029 299.343 225.173 299.528 225.281C299.713 225.389 299.932 225.443 300.185 225.443C300.404 225.443 300.607 225.389 300.795 225.281C300.987 225.173 301.141 225.029 301.258 224.85C301.375 224.668 301.434 224.468 301.434 224.249C301.434 223.974 301.363 223.746 301.221 223.564C301.082 223.379 300.888 223.242 300.638 223.152C300.391 223.06 300.109 223.014 299.791 223.014V222.389C300.229 222.389 300.579 222.298 300.842 222.116C301.107 221.934 301.239 221.666 301.239 221.311C301.239 221.123 301.189 220.95 301.087 220.793C300.985 220.635 300.851 220.511 300.684 220.418C300.521 220.322 300.345 220.275 300.157 220.275C299.966 220.275 299.782 220.322 299.606 220.418C299.43 220.511 299.287 220.635 299.176 220.793C299.065 220.95 299.009 221.123 299.009 221.311H298.232C298.232 221.061 298.283 220.827 298.385 220.608C298.49 220.389 298.632 220.196 298.81 220.029C298.992 219.863 299.198 219.733 299.426 219.641C299.654 219.545 299.895 219.497 300.148 219.497C300.478 219.497 300.785 219.579 301.068 219.742C301.352 219.906 301.58 220.125 301.753 220.399C301.929 220.674 302.017 220.978 302.017 221.311C302.017 221.61 301.941 221.886 301.79 222.139C301.639 222.392 301.434 222.569 301.175 222.671C301.4 222.748 301.59 222.869 301.744 223.032C301.898 223.192 302.014 223.378 302.091 223.587C302.171 223.797 302.211 224.018 302.211 224.249C302.211 224.61 302.117 224.94 301.929 225.239C301.744 225.538 301.497 225.777 301.189 225.956C300.883 226.132 300.549 226.22 300.185 226.22Z" fill="#B9ACD3"/>
<path d="M12.6172 285.604L301.158 285.604" stroke="#1F1E22" stroke-width="0.841226"/>
<path d="M12.6172 285.604L12.6172 -0.413229" stroke="#1F1E22" stroke-width="0.841226"/>
<path d="M1.40905 72.1504L2.66669 69.98C2.37226 70.067 2.08203 70.0824 1.79602 70.0263C1.5128 69.9674 1.25483 69.8524 1.02209 69.6814C0.78935 69.5075 0.602878 69.2888 0.462674 69.0252C0.32247 68.7617 0.252368 68.4686 0.252368 68.1462C0.252368 67.8714 0.304243 67.6134 0.407994 67.3722C0.511746 67.1311 0.654754 66.9194 0.83702 66.7371C1.01929 66.5548 1.22959 66.4118 1.46794 66.3081C1.70909 66.2043 1.96707 66.1525 2.24187 66.1525C2.6064 66.1525 2.93728 66.2422 3.23451 66.4216C3.53455 66.6011 3.7743 66.8423 3.95376 67.1451C4.13603 67.4451 4.22716 67.7788 4.22716 68.1462C4.22716 68.3452 4.20192 68.5219 4.15145 68.6761C4.10378 68.8275 4.03087 68.993 3.93273 69.1725L2.22504 72.1504H1.40905ZM2.23345 69.429C2.48302 69.429 2.70454 69.3701 2.89802 69.2524C3.09431 69.1318 3.24713 68.9734 3.35649 68.7771C3.46865 68.5808 3.52474 68.3705 3.52474 68.1462C3.52474 67.9022 3.46585 67.6835 3.34808 67.49C3.23031 67.2937 3.07328 67.1395 2.87699 67.0273C2.68071 66.9124 2.469 66.8549 2.24187 66.8549C1.9923 66.8549 1.76938 66.9152 1.57309 67.0357C1.37961 67.1563 1.22679 67.3161 1.11462 67.5152C1.00526 67.7115 0.950585 67.9218 0.950585 68.1462C0.950585 68.3817 1.00667 68.5976 1.11883 68.7939C1.2338 68.9874 1.38802 69.1416 1.5815 69.2566C1.77779 69.3715 1.99511 69.429 2.23345 69.429ZM6.9967 72.2597C6.64619 72.2597 6.33213 72.1812 6.05453 72.0242C5.77692 71.8644 5.53857 71.6443 5.33948 71.3638C5.14039 71.0834 4.98897 70.7596 4.88522 70.3922C4.78147 70.0221 4.72959 69.6267 4.72959 69.2061C4.72959 68.7855 4.78147 68.3901 4.88522 68.02C4.98897 67.6498 5.14039 67.326 5.33948 67.0484C5.53857 66.7679 5.77692 66.5492 6.05453 66.3922C6.33213 66.2324 6.64619 66.1525 6.9967 66.1525C7.3444 66.1525 7.65706 66.2324 7.93466 66.3922C8.21507 66.5492 8.45202 66.7679 8.6455 67.0484C8.84179 67.326 8.99181 67.6498 9.09556 68.02C9.20211 68.3901 9.25539 68.7855 9.25539 69.2061C9.25539 69.6267 9.20211 70.0221 9.09556 70.3922C8.99181 70.7596 8.84179 71.0834 8.6455 71.3638C8.45202 71.6443 8.21507 71.8644 7.93466 72.0242C7.65706 72.1812 7.3444 72.2597 6.9967 72.2597ZM6.9967 71.5531C7.34721 71.5531 7.64024 71.4452 7.87578 71.2292C8.11413 71.0105 8.29219 70.7231 8.40996 70.367C8.52773 70.0109 8.58661 69.6239 8.58661 69.2061C8.58661 68.7659 8.52492 68.3691 8.40154 68.0158C8.28097 67.6596 8.10151 67.3778 7.86316 67.1703C7.62762 66.9628 7.3388 66.8591 6.9967 66.8591C6.72751 66.8591 6.49196 66.9222 6.29007 67.0484C6.09098 67.1745 5.92554 67.347 5.79375 67.5657C5.66195 67.7844 5.56241 68.0354 5.49511 68.3186C5.43062 68.599 5.39837 68.8948 5.39837 69.2061C5.39837 69.6239 5.45866 70.0123 5.57923 70.3712C5.69981 70.7273 5.87787 71.0133 6.11341 71.2292C6.35176 71.4452 6.64619 71.5531 6.9967 71.5531Z" fill="#626069"/>
<path d="M2.23345 124.908C1.88294 124.908 1.56328 124.828 1.27446 124.668C0.98844 124.509 0.759907 124.295 0.588858 124.029C0.420613 123.76 0.33649 123.463 0.33649 123.137C0.33649 122.835 0.416407 122.557 0.57624 122.305C0.736073 122.049 0.944977 121.848 1.20295 121.699C0.992646 121.564 0.818793 121.386 0.681393 121.165C0.546797 120.94 0.479499 120.698 0.479499 120.437C0.479499 120.134 0.558013 119.859 0.715042 119.613C0.874875 119.366 1.08658 119.17 1.35017 119.024C1.61656 118.875 1.91098 118.801 2.23345 118.801C2.55592 118.801 2.84895 118.875 3.11254 119.024C3.37892 119.17 3.59063 119.366 3.74766 119.613C3.90749 119.859 3.98741 120.134 3.98741 120.437C3.98741 120.698 3.92011 120.94 3.78552 121.165C3.65092 121.386 3.47566 121.564 3.25975 121.699C3.52614 121.848 3.73785 122.049 3.89488 122.305C4.05471 122.557 4.13462 122.835 4.13462 123.137C4.13462 123.46 4.0491 123.756 3.87805 124.025C3.707 124.294 3.47707 124.509 3.18825 124.668C2.90223 124.828 2.58397 124.908 2.23345 124.908ZM2.23345 124.202C2.44656 124.202 2.63864 124.154 2.80969 124.059C2.98355 123.963 3.12235 123.836 3.2261 123.676C3.32985 123.513 3.38173 123.334 3.38173 123.137C3.38173 122.938 3.32985 122.759 3.2261 122.599C3.12235 122.439 2.98355 122.312 2.80969 122.216C2.63864 122.121 2.44656 122.073 2.23345 122.073C2.02315 122.073 1.83107 122.121 1.65721 122.216C1.48336 122.312 1.34456 122.439 1.24081 122.599C1.13706 122.759 1.08518 122.938 1.08518 123.137C1.08518 123.334 1.13706 123.513 1.24081 123.676C1.34456 123.836 1.48336 123.963 1.65721 124.059C1.83107 124.154 2.02315 124.202 2.23345 124.202ZM2.23345 121.367C2.41852 121.367 2.58677 121.325 2.73819 121.24C2.88961 121.156 3.01019 121.044 3.09992 120.904C3.19245 120.764 3.23872 120.608 3.23872 120.437C3.23872 120.263 3.19245 120.108 3.09992 119.97C3.01019 119.83 2.88961 119.718 2.73819 119.634C2.58677 119.55 2.41852 119.508 2.23345 119.508C2.04838 119.508 1.88014 119.55 1.72872 119.634C1.5773 119.718 1.45532 119.83 1.36279 119.97C1.27305 120.108 1.22819 120.263 1.22819 120.437C1.22819 120.608 1.27305 120.764 1.36279 120.904C1.45532 121.044 1.5773 121.156 1.72872 121.24C1.88014 121.325 2.04838 121.367 2.23345 121.367ZM6.98848 124.908C6.63797 124.908 6.32391 124.83 6.04631 124.673C5.76871 124.513 5.53036 124.293 5.33127 124.012C5.13218 123.732 4.98076 123.408 4.87701 123.041C4.77326 122.671 4.72138 122.275 4.72138 121.855C4.72138 121.434 4.77326 121.039 4.87701 120.668C4.98076 120.298 5.13218 119.974 5.33127 119.697C5.53036 119.416 5.76871 119.198 6.04631 119.041C6.32391 118.881 6.63797 118.801 6.98848 118.801C7.33619 118.801 7.64885 118.881 7.92645 119.041C8.20686 119.198 8.4438 119.416 8.63729 119.697C8.83357 119.974 8.98359 120.298 9.08734 120.668C9.1939 121.039 9.24717 121.434 9.24717 121.855C9.24717 122.275 9.1939 122.671 9.08734 123.041C8.98359 123.408 8.83357 123.732 8.63729 124.012C8.4438 124.293 8.20686 124.513 7.92645 124.673C7.64885 124.83 7.33619 124.908 6.98848 124.908ZM6.98848 124.202C7.33899 124.202 7.63202 124.094 7.86756 123.878C8.10591 123.659 8.28397 123.372 8.40174 123.015C8.51951 122.659 8.5784 122.272 8.5784 121.855C8.5784 121.414 8.51671 121.018 8.39333 120.664C8.27275 120.308 8.09329 120.026 7.85495 119.819C7.6194 119.611 7.33058 119.508 6.98848 119.508C6.71929 119.508 6.48375 119.571 6.28185 119.697C6.08276 119.823 5.91732 119.995 5.78553 120.214C5.65374 120.433 5.55419 120.684 5.48689 120.967C5.4224 121.247 5.39015 121.543 5.39015 121.855C5.39015 122.272 5.45044 122.661 5.57102 123.02C5.69159 123.376 5.86965 123.662 6.1052 123.878C6.34354 124.094 6.63797 124.202 6.98848 124.202Z" fill="#626069"/>
<path d="M0.559415 177.449L3.54577 172.267H0.168245V171.561H4.36176V172.267L1.36699 177.449H0.559415ZM7.04599 177.559C6.69548 177.559 6.38142 177.48 6.10382 177.323C5.82621 177.163 5.58786 176.943 5.38877 176.663C5.18968 176.382 5.03826 176.058 4.93451 175.691C4.83076 175.321 4.77889 174.926 4.77889 174.505C4.77889 174.084 4.83076 173.689 4.93451 173.319C5.03826 172.949 5.18968 172.625 5.38877 172.347C5.58786 172.067 5.82621 171.848 6.10382 171.691C6.38142 171.531 6.69548 171.451 7.04599 171.451C7.3937 171.451 7.70635 171.531 7.98396 171.691C8.26436 171.848 8.50131 172.067 8.69479 172.347C8.89108 172.625 9.0411 172.949 9.14485 173.319C9.2514 173.689 9.30468 174.084 9.30468 174.505C9.30468 174.926 9.2514 175.321 9.14485 175.691C9.0411 176.058 8.89108 176.382 8.69479 176.663C8.50131 176.943 8.26436 177.163 7.98396 177.323C7.70635 177.48 7.3937 177.559 7.04599 177.559ZM7.04599 176.852C7.3965 176.852 7.68953 176.744 7.92507 176.528C8.16342 176.309 8.34148 176.022 8.45925 175.666C8.57702 175.31 8.63591 174.923 8.63591 174.505C8.63591 174.065 8.57422 173.668 8.45084 173.315C8.33026 172.958 8.1508 172.677 7.91245 172.469C7.67691 172.262 7.38809 172.158 7.04599 172.158C6.7768 172.158 6.54125 172.221 6.33936 172.347C6.14027 172.473 5.97483 172.646 5.84304 172.865C5.71124 173.083 5.6117 173.334 5.5444 173.617C5.47991 173.898 5.44766 174.194 5.44766 174.505C5.44766 174.923 5.50795 175.311 5.62852 175.67C5.7491 176.026 5.92716 176.312 6.1627 176.528C6.40105 176.744 6.69548 176.852 7.04599 176.852Z" fill="#626069"/>
<path d="M2.25028 230.207C1.87734 230.207 1.53664 230.114 1.22819 229.929C0.91974 229.744 0.672981 229.498 0.487911 229.189C0.302841 228.878 0.210306 228.534 0.210306 228.159C0.210306 227.948 0.234141 227.765 0.281811 227.608C0.332284 227.451 0.406592 227.281 0.504735 227.099L2.17036 224.209H2.99056L1.80022 226.274C2.04137 226.199 2.28112 226.172 2.51947 226.194C2.75782 226.217 2.98355 226.281 3.19666 226.388C3.41257 226.494 3.60325 226.635 3.76869 226.808C3.93413 226.982 4.06452 227.184 4.15986 227.414C4.2552 227.641 4.30287 227.889 4.30287 228.159C4.30287 228.442 4.24819 228.707 4.13883 228.954C4.03228 229.2 3.88506 229.418 3.69719 229.606C3.51212 229.793 3.2948 229.941 3.04524 230.047C2.79567 230.154 2.53069 230.207 2.25028 230.207ZM2.25028 229.5C2.50825 229.5 2.73819 229.437 2.94008 229.311C3.14478 229.185 3.30462 229.019 3.41958 228.815C3.53735 228.61 3.59624 228.391 3.59624 228.159C3.59624 227.915 3.53595 227.692 3.41538 227.49C3.2976 227.288 3.13637 227.127 2.93167 227.006C2.72978 226.883 2.50545 226.821 2.25869 226.821C2.00072 226.821 1.77078 226.884 1.56889 227.01C1.36699 227.137 1.20716 227.301 1.08939 227.502C0.97442 227.704 0.916936 227.923 0.916936 228.159C0.916936 228.414 0.978626 228.642 1.10201 228.844C1.22539 229.046 1.38802 229.206 1.58992 229.324C1.79461 229.442 2.01474 229.5 2.25028 229.5ZM7.07063 230.207C6.72012 230.207 6.40607 230.129 6.12846 229.971C5.85086 229.812 5.61251 229.592 5.41342 229.311C5.21433 229.031 5.06291 228.707 4.95916 228.339C4.85541 227.969 4.80353 227.574 4.80353 227.153C4.80353 226.733 4.85541 226.337 4.95916 225.967C5.06291 225.597 5.21433 225.273 5.41342 224.996C5.61251 224.715 5.85086 224.496 6.12846 224.339C6.40607 224.18 6.72012 224.1 7.07063 224.1C7.41834 224.1 7.731 224.18 8.0086 224.339C8.28901 224.496 8.52595 224.715 8.71944 224.996C8.91572 225.273 9.06574 225.597 9.16949 225.967C9.27605 226.337 9.32932 226.733 9.32932 227.153C9.32932 227.574 9.27605 227.969 9.16949 228.339C9.06574 228.707 8.91572 229.031 8.71944 229.311C8.52595 229.592 8.28901 229.812 8.0086 229.971C7.731 230.129 7.41834 230.207 7.07063 230.207ZM7.07063 229.5C7.42114 229.5 7.71417 229.392 7.94971 229.177C8.18806 228.958 8.36612 228.67 8.48389 228.314C8.60166 227.958 8.66055 227.571 8.66055 227.153C8.66055 226.713 8.59886 226.316 8.47548 225.963C8.35491 225.607 8.17544 225.325 7.9371 225.118C7.70155 224.91 7.41273 224.806 7.07063 224.806C6.80144 224.806 6.5659 224.869 6.364 224.996C6.16491 225.122 5.99947 225.294 5.86768 225.513C5.73589 225.732 5.63634 225.983 5.56905 226.266C5.50455 226.546 5.4723 226.842 5.4723 227.153C5.4723 227.571 5.53259 227.96 5.65317 228.318C5.77374 228.675 5.9518 228.961 6.18735 229.177C6.42569 229.392 6.72012 229.5 7.07063 229.5Z" fill="#626069"/>
<path d="M2.25028 282.855C1.88575 282.855 1.55487 282.767 1.25763 282.59C0.960399 282.414 0.724856 282.178 0.551003 281.884C0.379954 281.587 0.294429 281.26 0.294429 280.904H1.00106C1.00106 281.131 1.05714 281.34 1.1693 281.531C1.28147 281.718 1.43149 281.868 1.61936 281.981C1.81004 282.093 2.02034 282.149 2.25028 282.149C2.47741 282.149 2.68491 282.093 2.87279 281.981C3.06066 281.868 3.21068 281.718 3.32284 281.531C3.43501 281.34 3.49109 281.131 3.49109 280.904C3.49109 280.677 3.43781 280.468 3.33125 280.277C3.2275 280.086 3.07468 279.935 2.87279 279.823C2.67089 279.708 2.42553 279.65 2.13671 279.65H0.685599L1.25763 276.858H4.0505V277.564H1.82967L1.55627 278.944L2.16616 278.948C2.56714 278.956 2.91905 279.046 3.22189 279.217C3.52754 279.385 3.76589 279.615 3.93694 279.907C4.11079 280.196 4.19772 280.528 4.19772 280.904C4.19772 281.17 4.14724 281.423 4.0463 281.661C3.94535 281.896 3.80514 282.104 3.62568 282.283C3.44622 282.463 3.23872 282.603 3.00318 282.704C2.77044 282.805 2.51947 282.855 2.25028 282.855ZM6.96384 282.855C6.61333 282.855 6.29927 282.777 6.02166 282.62C5.74406 282.46 5.50571 282.24 5.30662 281.96C5.10753 281.679 4.95611 281.355 4.85236 280.988C4.74861 280.618 4.69673 280.222 4.69673 279.802C4.69673 279.381 4.74861 278.986 4.85236 278.616C4.95611 278.246 5.10753 277.922 5.30662 277.644C5.50571 277.364 5.74406 277.145 6.02166 276.988C6.29927 276.828 6.61333 276.748 6.96384 276.748C7.31154 276.748 7.6242 276.828 7.9018 276.988C8.18221 277.145 8.41916 277.364 8.61264 277.644C8.80893 277.922 8.95894 278.246 9.0627 278.616C9.16925 278.986 9.22253 279.381 9.22253 279.802C9.22253 280.222 9.16925 280.618 9.0627 280.988C8.95894 281.355 8.80893 281.679 8.61264 281.96C8.41916 282.24 8.18221 282.46 7.9018 282.62C7.6242 282.777 7.31154 282.855 6.96384 282.855ZM6.96384 282.149C7.31435 282.149 7.60738 282.041 7.84292 281.825C8.08127 281.606 8.25933 281.319 8.3771 280.963C8.49487 280.607 8.55375 280.22 8.55375 279.802C8.55375 279.362 8.49206 278.965 8.36868 278.611C8.24811 278.255 8.06865 277.974 7.8303 277.766C7.59476 277.559 7.30594 277.455 6.96384 277.455C6.69465 277.455 6.4591 277.518 6.25721 277.644C6.05812 277.77 5.89268 277.943 5.76088 278.161C5.62909 278.38 5.52955 278.631 5.46225 278.914C5.39776 279.195 5.36551 279.491 5.36551 279.802C5.36551 280.22 5.4258 280.608 5.54637 280.967C5.66695 281.323 5.84501 281.609 6.08055 281.825C6.3189 282.041 6.61333 282.149 6.96384 282.149Z" fill="#626069"/>
</g>
<defs>
<linearGradient id="paint0_linear_3483_193096" x1="156.884" y1="100.535" x2="157.305" y2="299.906" gradientUnits="userSpaceOnUse">
<stop stop-color="#6930FF" stop-opacity="0.44"/>
<stop offset="0.501505" stop-color="#662BFF" stop-opacity="0.21"/>
<stop offset="1" stop-color="#6124FF" stop-opacity="0"/>
</linearGradient>
<clipPath id="clip0_3483_193096">
<rect width="7.45834" height="7.45834" fill="white" transform="translate(38.6914 25.125)"/>
</clipPath>
<clipPath id="clip1_3483_193096">
<rect width="302" height="264.986" fill="white" transform="translate(0 43.3301)"/>
</clipPath>
</defs>
</svg>
