<svg width="350" height="274" viewBox="0 0 350 274" fill="none" xmlns="http://www.w3.org/2000/svg">
<g clip-path="url(#clip0_3483_193266)">
<g clip-path="url(#clip1_3483_193266)">
<path d="M25.125 -60.5625V257.417" stroke="#201F24" stroke-width="0.954893" stroke-dasharray="3.82 3.82"/>
<path d="M70.0039 -60.5625V257.417" stroke="#201F24" stroke-width="0.954893" stroke-dasharray="3.82 3.82"/>
<path d="M114.887 -60.5625V257.417" stroke="#201F24" stroke-width="0.954893" stroke-dasharray="3.82 3.82"/>
<path d="M159.766 -60.5625V257.417" stroke="#201F24" stroke-width="0.954893" stroke-dasharray="3.82 3.82"/>
<path d="M204.645 -60.5625V257.417" stroke="#201F24" stroke-width="0.954893" stroke-dasharray="3.82 3.82"/>
<path d="M249.523 -60.5625V257.417" stroke="#201F24" stroke-width="0.954893" stroke-dasharray="3.82 3.82"/>
<path d="M294.406 -60.5625V257.417" stroke="#201F24" stroke-width="0.954893" stroke-dasharray="3.82 3.82"/>
<path d="M339.285 -60.5625V257.417" stroke="#201F24" stroke-width="0.954893" stroke-dasharray="3.82 3.82"/>
<path d="M17.9648 264.098L345.493 264.098" stroke="#1F1E22" stroke-width="0.954893"/>
<path d="M17.9648 264.098L17.9648 -60.5661" stroke="#1F1E22" stroke-width="0.954893"/>
<path d="M5.24788 22.1758L6.67545 19.7122C6.34124 19.8108 6.0118 19.8283 5.68713 19.7647C5.36565 19.6978 5.07282 19.5673 4.80863 19.3732C4.54445 19.1758 4.33278 18.9276 4.17363 18.6284C4.01448 18.3292 3.93491 17.9965 3.93491 17.6305C3.93491 17.3186 3.99379 17.0257 4.11156 16.752C4.22933 16.4783 4.39166 16.2379 4.59856 16.031C4.80545 15.8241 5.04417 15.6618 5.31473 15.544C5.58846 15.4263 5.8813 15.3674 6.19323 15.3674C6.60702 15.3674 6.98261 15.4692 7.32 15.673C7.66058 15.8767 7.93273 16.1504 8.13644 16.4942C8.34333 16.8347 8.44678 17.2135 8.44678 17.6305C8.44678 17.8565 8.41813 18.057 8.36084 18.2321C8.30673 18.404 8.22397 18.5917 8.11256 18.7955L6.17413 22.1758H5.24788ZM6.18368 19.0867C6.46696 19.0867 6.71842 19.0199 6.93804 18.8862C7.16085 18.7493 7.33433 18.5695 7.45846 18.3467C7.58578 18.1239 7.64944 17.8851 7.64944 17.6305C7.64944 17.3536 7.5826 17.1053 7.44891 16.8857C7.31523 16.6629 7.13698 16.4878 6.91417 16.3605C6.69136 16.23 6.45105 16.1647 6.19323 16.1647C5.90994 16.1647 5.6569 16.2332 5.43409 16.37C5.21446 16.5069 5.04099 16.6883 4.91367 16.9143C4.78953 17.1371 4.72747 17.3759 4.72747 17.6305C4.72747 17.8979 4.79113 18.1429 4.91845 18.3658C5.04895 18.5854 5.22401 18.7604 5.44364 18.8909C5.66645 19.0215 5.91313 19.0867 6.18368 19.0867ZM11.5905 22.2999C11.1927 22.2999 10.8362 22.2108 10.5211 22.0325C10.2059 21.8511 9.93539 21.6013 9.7094 21.283C9.48341 20.9647 9.31153 20.597 9.19376 20.1801C9.07599 19.7599 9.0171 19.3111 9.0171 18.8337C9.0171 18.3562 9.07599 17.9074 9.19376 17.4873C9.31153 17.0671 9.48341 16.6995 9.7094 16.3844C9.93539 16.0661 10.2059 15.8178 10.5211 15.6395C10.8362 15.4581 11.1927 15.3674 11.5905 15.3674C11.9852 15.3674 12.3401 15.4581 12.6552 15.6395C12.9735 15.8178 13.2425 16.0661 13.4621 16.3844C13.6849 16.6995 13.8552 17.0671 13.973 17.4873C14.0939 17.9074 14.1544 18.3562 14.1544 18.8337C14.1544 19.3111 14.0939 19.7599 13.973 20.1801C13.8552 20.597 13.6849 20.9647 13.4621 21.283C13.2425 21.6013 12.9735 21.8511 12.6552 22.0325C12.3401 22.2108 11.9852 22.2999 11.5905 22.2999ZM11.5905 21.4978C11.9884 21.4978 12.321 21.3753 12.5884 21.1302C12.859 20.8819 13.0611 20.5556 13.1948 20.1514C13.3284 19.7472 13.3953 19.3079 13.3953 18.8337C13.3953 18.3339 13.3253 17.8835 13.1852 17.4825C13.0483 17.0782 12.8446 16.7584 12.5741 16.5228C12.3067 16.2873 11.9789 16.1695 11.5905 16.1695C11.285 16.1695 11.0176 16.2411 10.7884 16.3844C10.5624 16.5276 10.3746 16.7233 10.225 16.9716C10.0754 17.2199 9.96245 17.5048 9.88605 17.8262C9.81285 18.1445 9.77624 18.4803 9.77624 18.8337C9.77624 19.3079 9.84467 19.7488 9.98154 20.1562C10.1184 20.5604 10.3205 20.8851 10.5879 21.1302C10.8585 21.3753 11.1927 21.4978 11.5905 21.4978Z" fill="#626069"/>
<path d="M6.18368 81.4952C5.78581 81.4952 5.42295 81.4045 5.0951 81.2231C4.77044 81.0417 4.51102 80.7997 4.31686 80.4974C4.12588 80.1918 4.03039 79.8544 4.03039 79.4852C4.03039 79.1414 4.12111 78.8263 4.30254 78.5398C4.48397 78.2502 4.7211 78.021 5.01393 77.8523C4.77521 77.6995 4.57787 77.4974 4.4219 77.246C4.26912 76.9913 4.19273 76.716 4.19273 76.42C4.19273 76.0762 4.28185 75.7643 4.4601 75.4842C4.64153 75.2041 4.88184 74.9813 5.18104 74.8158C5.48342 74.6471 5.81764 74.5627 6.18368 74.5627C6.54972 74.5627 6.88234 74.6471 7.18154 74.8158C7.48393 74.9813 7.72424 75.2041 7.90249 75.4842C8.08392 75.7643 8.17463 76.0762 8.17463 76.42C8.17463 76.716 8.09824 76.9913 7.94546 77.246C7.79267 77.4974 7.59374 77.6995 7.34865 77.8523C7.65103 78.021 7.89135 78.2502 8.06959 78.5398C8.25102 78.8263 8.34174 79.1414 8.34174 79.4852C8.34174 79.8512 8.24466 80.187 8.0505 80.4926C7.85633 80.7982 7.59533 81.0417 7.26748 81.2231C6.94282 81.4045 6.58155 81.4952 6.18368 81.4952ZM6.18368 80.6931C6.42559 80.6931 6.64362 80.639 6.83778 80.5308C7.03513 80.4226 7.19268 80.2777 7.31045 80.0963C7.42822 79.9117 7.48711 79.708 7.48711 79.4852C7.48711 79.2592 7.42822 79.0555 7.31045 78.874C7.19268 78.6926 7.03513 78.5478 6.83778 78.4396C6.64362 78.3314 6.42559 78.2772 6.18368 78.2772C5.94496 78.2772 5.72692 78.3314 5.52958 78.4396C5.33223 78.5478 5.17468 78.6926 5.05691 78.874C4.93913 79.0555 4.88025 79.2592 4.88025 79.4852C4.88025 79.708 4.93913 79.9117 5.05691 80.0963C5.17468 80.2777 5.33223 80.4226 5.52958 80.5308C5.72692 80.639 5.94496 80.6931 6.18368 80.6931ZM6.18368 77.4751C6.39376 77.4751 6.58473 77.4274 6.75661 77.3319C6.9285 77.2364 7.06536 77.1091 7.16722 76.9499C7.27226 76.7908 7.32478 76.6141 7.32478 76.42C7.32478 76.2226 7.27226 76.046 7.16722 75.89C7.06536 75.7309 6.9285 75.6035 6.75661 75.508C6.58473 75.4126 6.39376 75.3648 6.18368 75.3648C5.9736 75.3648 5.78262 75.4126 5.61074 75.508C5.43886 75.6035 5.3004 75.7309 5.19536 75.89C5.09351 76.046 5.04258 76.2226 5.04258 76.42C5.04258 76.6141 5.09351 76.7908 5.19536 76.9499C5.3004 77.1091 5.43886 77.2364 5.61074 77.3319C5.78262 77.4274 5.9736 77.4751 6.18368 77.4751ZM11.5812 81.4952C11.1833 81.4952 10.8268 81.4061 10.5117 81.2279C10.1966 81.0464 9.92606 80.7966 9.70007 80.4783C9.47408 80.16 9.3022 79.7923 9.18443 79.3754C9.06666 78.9552 9.00778 78.5064 9.00778 78.029C9.00778 77.5515 9.06666 77.1027 9.18443 76.6826C9.3022 76.2624 9.47408 75.8948 9.70007 75.5797C9.92606 75.2614 10.1966 75.0131 10.5117 74.8348C10.8268 74.6534 11.1833 74.5627 11.5812 74.5627C11.9759 74.5627 12.3308 74.6534 12.6459 74.8348C12.9642 75.0131 13.2332 75.2614 13.4528 75.5797C13.6756 75.8948 13.8459 76.2624 13.9637 76.6826C14.0846 77.1027 14.1451 77.5515 14.1451 78.029C14.1451 78.5064 14.0846 78.9552 13.9637 79.3754C13.8459 79.7923 13.6756 80.16 13.4528 80.4783C13.2332 80.7966 12.9642 81.0464 12.6459 81.2279C12.3308 81.4061 11.9759 81.4952 11.5812 81.4952ZM11.5812 80.6931C11.9791 80.6931 12.3117 80.5706 12.5791 80.3255C12.8496 80.0772 13.0517 79.751 13.1854 79.3467C13.3191 78.9425 13.386 78.5032 13.386 78.029C13.386 77.5292 13.3159 77.0788 13.1759 76.6778C13.039 76.2736 12.8353 75.9537 12.5648 75.7181C12.2974 75.4826 11.9695 75.3648 11.5812 75.3648C11.2756 75.3648 11.0083 75.4364 10.7791 75.5797C10.5531 75.7229 10.3653 75.9187 10.2157 76.1669C10.0661 76.4152 9.95312 76.7001 9.87673 77.0216C9.80352 77.3399 9.76692 77.6757 9.76692 78.029C9.76692 78.5032 9.83535 78.9441 9.97222 79.3515C10.1091 79.7557 10.3112 80.0804 10.5786 80.3255C10.8491 80.5706 11.1833 80.6931 11.5812 80.6931Z" fill="#626069"/>
<path d="M4.28344 140.566L7.67331 134.684H3.83942V133.882H8.59956V134.684L5.20014 140.566H4.28344ZM11.6465 140.691C11.2486 140.691 10.8921 140.601 10.577 140.423C10.2619 140.242 9.99134 139.992 9.76535 139.674C9.53936 139.355 9.36748 138.988 9.24971 138.571C9.13194 138.151 9.07305 137.702 9.07305 137.224C9.07305 136.747 9.13194 136.298 9.24971 135.878C9.36748 135.458 9.53936 135.09 9.76535 134.775C9.99134 134.457 10.2619 134.208 10.577 134.03C10.8921 133.849 11.2486 133.758 11.6465 133.758C12.0412 133.758 12.3961 133.849 12.7112 134.03C13.0295 134.208 13.2985 134.457 13.5181 134.775C13.7409 135.09 13.9112 135.458 14.0289 135.878C14.1499 136.298 14.2104 136.747 14.2104 137.224C14.2104 137.702 14.1499 138.151 14.0289 138.571C13.9112 138.988 13.7409 139.355 13.5181 139.674C13.2985 139.992 13.0295 140.242 12.7112 140.423C12.3961 140.601 12.0412 140.691 11.6465 140.691ZM11.6465 139.888C12.0444 139.888 12.377 139.766 12.6444 139.521C12.9149 139.273 13.117 138.946 13.2507 138.542C13.3844 138.138 13.4512 137.699 13.4512 137.224C13.4512 136.725 13.3812 136.274 13.2412 135.873C13.1043 135.469 12.9006 135.149 12.63 134.913C12.3627 134.678 12.0348 134.56 11.6465 134.56C11.3409 134.56 11.0736 134.632 10.8444 134.775C10.6184 134.918 10.4306 135.114 10.281 135.362C10.1314 135.611 10.0184 135.895 9.942 136.217C9.8688 136.535 9.83219 136.871 9.83219 137.224C9.83219 137.699 9.90063 138.139 10.0375 138.547C10.1744 138.951 10.3765 139.276 10.6439 139.521C10.9144 139.766 11.2486 139.888 11.6465 139.888Z" fill="#626069"/>
<path d="M6.20278 199.886C5.77944 199.886 5.39271 199.781 5.04258 199.571C4.69245 199.361 4.41235 199.081 4.20228 198.73C3.9922 198.377 3.88716 197.987 3.88716 197.561C3.88716 197.322 3.91422 197.113 3.96833 196.935C4.02562 196.757 4.10997 196.564 4.22137 196.358L6.11206 193.077H7.04308L5.69191 195.422C5.96565 195.336 6.23779 195.306 6.50834 195.331C6.7789 195.356 7.03513 195.43 7.27703 195.551C7.52212 195.672 7.73856 195.831 7.92636 196.028C8.11415 196.225 8.26216 196.455 8.37038 196.716C8.47861 196.973 8.53272 197.255 8.53272 197.561C8.53272 197.882 8.47065 198.183 8.34651 198.463C8.22556 198.743 8.05845 198.99 7.84519 199.203C7.63512 199.416 7.38844 199.583 7.10515 199.704C6.82187 199.825 6.52107 199.886 6.20278 199.886ZM6.20278 199.084C6.49561 199.084 6.75662 199.012 6.98579 198.869C7.21815 198.726 7.39958 198.538 7.53008 198.306C7.66376 198.073 7.73061 197.825 7.73061 197.561C7.73061 197.284 7.66217 197.031 7.5253 196.802C7.39162 196.572 7.2086 196.389 6.97624 196.252C6.74707 196.112 6.49243 196.042 6.21233 196.042C5.91949 196.042 5.65849 196.114 5.42931 196.257C5.20014 196.4 5.01871 196.587 4.88502 196.816C4.75452 197.045 4.68927 197.293 4.68927 197.561C4.68927 197.85 4.7593 198.11 4.89935 198.339C5.0394 198.568 5.22401 198.75 5.45319 198.883C5.68554 199.017 5.93541 199.084 6.20278 199.084ZM11.6745 199.886C11.2766 199.886 10.9201 199.797 10.605 199.618C10.2899 199.437 10.0193 199.187 9.79332 198.869C9.56733 198.551 9.39545 198.183 9.27768 197.766C9.15991 197.346 9.10103 196.897 9.10103 196.42C9.10103 195.942 9.15991 195.493 9.27768 195.073C9.39545 194.653 9.56733 194.285 9.79332 193.97C10.0193 193.652 10.2899 193.404 10.605 193.225C10.9201 193.044 11.2766 192.953 11.6745 192.953C12.0692 192.953 12.4241 193.044 12.7392 193.225C13.0575 193.404 13.3264 193.652 13.5461 193.97C13.7689 194.285 13.9392 194.653 14.0569 195.073C14.1779 195.493 14.2384 195.942 14.2384 196.42C14.2384 196.897 14.1779 197.346 14.0569 197.766C13.9392 198.183 13.7689 198.551 13.5461 198.869C13.3264 199.187 13.0575 199.437 12.7392 199.618C12.4241 199.797 12.0692 199.886 11.6745 199.886ZM11.6745 199.084C12.0723 199.084 12.405 198.961 12.6723 198.716C12.9429 198.468 13.145 198.142 13.2787 197.737C13.4124 197.333 13.4792 196.894 13.4792 196.42C13.4792 195.92 13.4092 195.469 13.2691 195.068C13.1323 194.664 12.9286 194.344 12.658 194.109C12.3906 193.873 12.0628 193.755 11.6745 193.755C11.3689 193.755 11.1015 193.827 10.8724 193.97C10.6464 194.114 10.4586 194.309 10.309 194.558C10.1594 194.806 10.0464 195.091 9.96998 195.412C9.89677 195.73 9.86017 196.066 9.86017 196.42C9.86017 196.894 9.9286 197.335 10.0655 197.742C10.2023 198.146 10.4045 198.471 10.6718 198.716C10.9424 198.961 11.2766 199.084 11.6745 199.084Z" fill="#626069"/>
<path d="M6.20278 259.081C5.78899 259.081 5.4134 258.981 5.076 258.78C4.73861 258.58 4.47124 258.312 4.27389 257.978C4.07973 257.641 3.98265 257.27 3.98265 256.866H4.78476C4.78476 257.124 4.84842 257.361 4.97574 257.577C5.10306 257.79 5.27335 257.961 5.48661 258.088C5.70305 258.215 5.94177 258.279 6.20278 258.279C6.4606 258.279 6.69614 258.215 6.9094 258.088C7.12266 257.961 7.29295 257.79 7.42027 257.577C7.54758 257.361 7.61124 257.124 7.61124 256.866C7.61124 256.608 7.55077 256.371 7.42981 256.154C7.31204 255.938 7.13857 255.766 6.9094 255.639C6.68022 255.508 6.40171 255.443 6.07387 255.443H4.42668L5.076 252.273H8.24625V253.075H5.72533L5.41499 254.641L6.10729 254.646C6.56245 254.655 6.96192 254.757 7.30568 254.951C7.65262 255.142 7.92318 255.403 8.11734 255.734C8.31468 256.062 8.41335 256.439 8.41335 256.866C8.41335 257.168 8.35606 257.455 8.24147 257.725C8.12689 257.993 7.96774 258.228 7.76403 258.432C7.56032 258.636 7.32478 258.795 7.05741 258.909C6.79322 259.024 6.50834 259.081 6.20278 259.081ZM11.5532 259.081C11.1554 259.081 10.7989 258.992 10.4838 258.814C10.1686 258.632 9.89809 258.383 9.6721 258.064C9.44611 257.746 9.27423 257.378 9.15646 256.961C9.03869 256.541 8.9798 256.092 8.9798 255.615C8.9798 255.137 9.03869 254.689 9.15646 254.269C9.27423 253.848 9.44611 253.481 9.6721 253.166C9.89809 252.847 10.1686 252.599 10.4838 252.421C10.7989 252.239 11.1554 252.149 11.5532 252.149C11.9479 252.149 12.3028 252.239 12.6179 252.421C12.9362 252.599 13.2052 252.847 13.4248 253.166C13.6476 253.481 13.8179 253.848 13.9357 254.269C14.0566 254.689 14.1171 255.137 14.1171 255.615C14.1171 256.092 14.0566 256.541 13.9357 256.961C13.8179 257.378 13.6476 257.746 13.4248 258.064C13.2052 258.383 12.9362 258.632 12.6179 258.814C12.3028 258.992 11.9479 259.081 11.5532 259.081ZM11.5532 258.279C11.9511 258.279 12.2837 258.157 12.5511 257.911C12.8217 257.663 13.0238 257.337 13.1575 256.933C13.2911 256.528 13.358 256.089 13.358 255.615C13.358 255.115 13.288 254.665 13.1479 254.264C13.011 253.859 12.8073 253.54 12.5368 253.304C12.2694 253.069 11.9416 252.951 11.5532 252.951C11.2477 252.951 10.9803 253.022 10.7511 253.166C10.5251 253.309 10.3373 253.505 10.1877 253.753C10.0381 254.001 9.92514 254.286 9.84875 254.607C9.77554 254.926 9.73894 255.262 9.73894 255.615C9.73894 256.089 9.80737 256.53 9.94424 256.937C10.0811 257.342 10.2832 257.666 10.5506 257.911C10.8212 258.157 11.1554 258.279 11.5532 258.279Z" fill="#626069"/>
</g>
<path d="M17.7133 263.945C185.929 240.226 292.578 126.474 344.426 0V263.945H17.7133Z" fill="url(#paint0_linear_3483_193266)"/>
<path d="M342.254 6.80913C342.034 6.21197 341.382 5.92094 340.797 6.15909L331.263 10.04C330.678 10.2781 330.381 10.9553 330.6 11.5524C330.82 12.1496 331.472 12.4406 332.057 12.2025L340.532 8.75282L343.709 17.4029C343.929 18.0001 344.581 18.2911 345.166 18.053C345.751 17.8148 346.047 17.1377 345.828 16.5405L342.254 6.80913ZM20.5485 263.497L20.7116 264.645C168.754 239.287 276.622 157.528 342.224 7.70001L341.194 7.24036L340.164 6.7807C274.886 155.87 167.678 237.119 20.3853 262.349L20.5485 263.497Z" fill="url(#paint1_linear_3483_193266)" fill-opacity="0.75"/>
</g>
<defs>
<linearGradient id="paint0_linear_3483_193266" x1="183.312" y1="-1.8245" x2="182.555" y2="291.76" gradientUnits="userSpaceOnUse">
<stop stop-color="#6930FF" stop-opacity="0.44"/>
<stop offset="0.501505" stop-color="#662BFF" stop-opacity="0.21"/>
<stop offset="1" stop-color="#6124FF" stop-opacity="0"/>
</linearGradient>
<linearGradient id="paint1_linear_3483_193266" x1="380.004" y1="-23.2887" x2="25.6398" y2="258.749" gradientUnits="userSpaceOnUse">
<stop stop-color="#A888FC"/>
<stop offset="1" stop-color="#645196" stop-opacity="0"/>
</linearGradient>
<clipPath id="clip0_3483_193266">
<rect width="350.854" height="273.602" fill="white" transform="matrix(-1 0 0 1 350.855 0)"/>
</clipPath>
<clipPath id="clip1_3483_193266">
<rect width="342.807" height="276.82" fill="white" transform="translate(3.64844 -10.9102)"/>
</clipPath>
</defs>
</svg>
