<svg width="129" height="27" viewBox="0 0 129 27" fill="none" xmlns="http://www.w3.org/2000/svg">
<path d="M128.347 10.3432H126.814V16.7634H124.464V10.3432H123.289V7.89577H124.464V5.11133H126.814V7.89577H128.347V10.3432Z" fill="white"/>
<path d="M119.191 7.89514H121.541V16.7628H119.191V7.89514ZM120.383 6.87536C120.042 6.87536 119.756 6.75712 119.523 6.52065C119.29 6.28418 119.174 5.99155 119.174 5.64276C119.174 5.29396 119.29 5.00133 119.523 4.76486C119.756 4.52839 120.04 4.41016 120.374 4.41016C120.709 4.41016 120.99 4.52839 121.218 4.76486C121.45 5.00133 121.567 5.29396 121.567 5.64276C121.567 5.99155 121.453 6.28418 121.226 6.52065C121.005 6.75712 120.724 6.87536 120.383 6.87536Z" fill="white"/>
<path d="M111.225 16.7643V4.34961H118.292V6.79708H113.575V8.88984H117.475V11.3373H113.575V16.7643H111.225Z" fill="white"/>
<path d="M105.691 16.9949C104.908 16.9949 104.193 16.7851 103.545 16.3653C102.904 15.9456 102.39 15.381 102.004 14.6716C101.624 13.9622 101.434 13.1789 101.434 12.3217C101.434 11.6773 101.544 11.0743 101.766 10.5127C101.987 9.94516 102.291 9.44857 102.677 9.02292C103.069 8.59136 103.523 8.25439 104.039 8.01201C104.556 7.76963 105.107 7.64844 105.691 7.64844C106.367 7.64844 106.983 7.79919 107.539 8.10069C108.101 8.40219 108.575 8.81305 108.961 9.33329C109.353 9.85352 109.631 10.4417 109.796 11.0979C109.966 11.7542 109.994 12.437 109.881 13.1464H103.971C104.045 13.4065 104.159 13.643 104.312 13.8558C104.471 14.0627 104.664 14.2282 104.891 14.3524C105.124 14.4765 105.39 14.5415 105.691 14.5475C105.986 14.5534 106.259 14.4824 106.509 14.3346C106.759 14.1868 106.971 13.9888 107.147 13.7405L109.549 14.3169C109.202 15.1032 108.686 15.7475 107.999 16.25C107.312 16.7466 106.543 16.9949 105.691 16.9949ZM103.886 11.3374H107.505C107.431 11.0418 107.306 10.7758 107.13 10.5393C106.954 10.3028 106.742 10.1166 106.492 9.98063C106.248 9.84466 105.981 9.77667 105.691 9.77667C105.407 9.77667 105.141 9.84466 104.891 9.98063C104.647 10.1166 104.437 10.3028 104.261 10.5393C104.09 10.7698 103.966 11.0359 103.886 11.3374Z" fill="white"/>
<path d="M97.5879 16.7643V3.46289H99.9381V16.7643H97.5879Z" fill="white"/>
<path d="M91.8082 7.64842C92.637 7.64842 93.3892 7.85828 94.0647 8.27802C94.746 8.69775 95.2881 9.26233 95.6912 9.97174C96.0942 10.6752 96.2958 11.4556 96.2958 12.3128C96.2958 12.9572 96.1794 13.5631 95.9466 14.1307C95.7139 14.6982 95.3903 15.1977 94.9759 15.6293C94.5671 16.0549 94.0903 16.389 93.5453 16.6313C93.006 16.8737 92.4269 16.9949 91.8082 16.9949C91.3199 16.9949 90.8857 16.8826 90.5053 16.6579C90.1249 16.4333 89.7985 16.1495 89.526 15.8066V16.7644H87.1758V3.46289H89.526V8.83668C89.7985 8.48789 90.1249 8.20412 90.5053 7.98539C90.8857 7.76074 91.3199 7.64842 91.8082 7.64842ZM91.7741 14.6272C92.1658 14.6272 92.5206 14.5238 92.8385 14.3169C93.1621 14.11 93.4176 13.8321 93.6049 13.4833C93.7922 13.1286 93.8859 12.7384 93.8859 12.3128C93.8859 11.8871 93.7894 11.4999 93.5964 11.1511C93.409 10.8023 93.1536 10.5245 92.83 10.3176C92.5121 10.1048 92.1601 9.99834 91.7741 9.99834C91.3881 9.99834 91.0389 10.1048 90.7267 10.3176C90.4201 10.5245 90.176 10.8053 89.9944 11.16C89.8184 11.5088 89.7304 11.8931 89.7304 12.3128C89.7304 12.7444 89.8184 13.1345 89.9944 13.4833C90.176 13.8321 90.4201 14.11 90.7267 14.3169C91.0389 14.5238 91.3881 14.6272 91.7741 14.6272Z" fill="white"/>
<path d="M82.9643 7.89673H85.3146V16.7644H82.9558L82.8451 15.8421C82.6237 16.185 82.3399 16.4629 81.9936 16.6757C81.6473 16.8885 81.2414 16.9949 80.7759 16.9949C80.1401 16.9949 79.5468 16.8708 78.9962 16.6225C78.4455 16.3742 77.9601 16.0313 77.54 15.5938C77.1199 15.1564 76.7907 14.6509 76.5523 14.0775C76.3195 13.4981 76.2031 12.8774 76.2031 12.2153C76.2031 11.5827 76.3138 10.9915 76.5352 10.4417C76.7566 9.89195 77.0689 9.40719 77.4719 8.98745C77.875 8.56772 78.3376 8.23961 78.8599 8.00314C79.3879 7.76667 79.9556 7.64844 80.563 7.64844C81.0853 7.64844 81.5536 7.76372 81.968 7.99428C82.3881 8.22483 82.7543 8.51747 83.0665 8.87217L82.9643 7.89673ZM80.7163 14.645C81.1023 14.645 81.4514 14.5415 81.7637 14.3346C82.0759 14.1277 82.3228 13.8499 82.5045 13.5011C82.6862 13.1464 82.777 12.7562 82.777 12.3306C82.777 11.899 82.6862 11.5088 82.5045 11.16C82.3228 10.8112 82.0759 10.5334 81.7637 10.3265C81.4514 10.1196 81.1023 10.0161 80.7163 10.0161C80.3246 10.0161 79.9698 10.1196 79.6519 10.3265C79.3339 10.5334 79.0813 10.8142 78.894 11.1689C78.7066 11.5177 78.613 11.9049 78.613 12.3306C78.613 12.7562 78.7066 13.1464 78.894 13.5011C79.087 13.8499 79.3425 14.1277 79.6604 14.3346C79.9783 14.5415 80.3302 14.645 80.7163 14.645Z" fill="white"/>
<path d="M75.2261 10.3432H73.6933V16.7634H71.3431V10.3432H70.168V7.89577H71.3431V5.11133H73.6933V7.89577H75.2261V10.3432Z" fill="white"/>
<path d="M64.3171 16.9939C63.6473 16.9939 63.0058 16.8845 62.3927 16.6658C61.7852 16.4471 61.2516 16.1308 60.7918 15.717C60.3376 15.3031 60.0112 14.8125 59.8125 14.2449L62.018 13.3936C62.0861 13.5946 62.228 13.7838 62.4438 13.9612C62.6595 14.1326 62.9291 14.2745 63.2527 14.3868C63.5763 14.4932 63.9311 14.5464 64.3171 14.5464C64.6861 14.5464 65.0324 14.4903 65.356 14.3779C65.6853 14.2597 65.9493 14.0971 66.1479 13.8902C66.3523 13.6833 66.4545 13.4409 66.4545 13.1631C66.4545 12.8852 66.3495 12.6547 66.1394 12.4714C65.9294 12.2881 65.6597 12.1433 65.3305 12.0369C65.0012 11.9246 64.6634 11.8388 64.3171 11.7797C63.4599 11.6497 62.6907 11.4398 62.0095 11.1501C61.3339 10.8545 60.8003 10.4496 60.4086 9.93526C60.0169 9.41502 59.821 8.75586 59.821 7.95777C59.821 7.18924 60.0282 6.51826 60.4426 5.94482C60.8627 5.37138 61.4134 4.92504 62.0946 4.60581C62.7815 4.28657 63.5224 4.12695 64.3171 4.12695C64.9757 4.12695 65.6115 4.23632 66.2246 4.45506C66.8377 4.67379 67.3713 4.99007 67.8255 5.40389C68.2853 5.81772 68.6146 6.3143 68.8133 6.89366L66.6078 7.72722C66.5397 7.52621 66.3977 7.33999 66.182 7.16855C65.9663 6.99711 65.6966 6.85819 65.373 6.75177C65.0495 6.64536 64.6975 6.59216 64.3171 6.59216C63.9538 6.58625 63.6075 6.64241 63.2783 6.76064C62.9547 6.87888 62.6879 7.04145 62.4778 7.24836C62.2734 7.45527 62.1713 7.69174 62.1713 7.95777C62.1713 8.30657 62.2678 8.56964 62.4608 8.74699C62.6595 8.92435 62.9206 9.05145 63.2442 9.1283C63.5678 9.20515 63.9254 9.27314 64.3171 9.33226C65.1233 9.4564 65.8669 9.6781 66.5482 9.99733C67.2294 10.3107 67.7744 10.7304 68.1831 11.2565C68.5975 11.7768 68.8047 12.4123 68.8047 13.1631C68.8047 13.9316 68.5975 14.6026 68.1831 15.176C67.7687 15.7495 67.2209 16.1958 66.5397 16.515C65.8584 16.8343 65.1176 16.9939 64.3171 16.9939Z" fill="white"/>
<path d="M1.52786 4.54688H4.12886V17.1617H1.52786V12.256H0V9.28218H1.52786V4.54688Z" fill="url(#paint0_linear_4791_3753)"/>
<mask id="mask0_4791_3753" style="mask-type:luminance" maskUnits="userSpaceOnUse" x="0" y="4" width="5" height="14">
<path d="M1.52786 4.54688H4.12886V17.1617H1.52786V12.256H0V9.28218H1.52786V4.54688Z" fill="white"/>
</mask>
<g mask="url(#mask0_4791_3753)">
<path d="M4.29305 4.54688H-0.0722656V4.9257H4.29305V4.54688Z" fill="white" fill-opacity="0.35"/>
</g>
<mask id="mask1_4791_3753" style="mask-type:luminance" maskUnits="userSpaceOnUse" x="0" y="4" width="5" height="14">
<path d="M1.52786 4.54688H4.12886V17.1617H1.52786V12.256H0V9.28218H1.52786V4.54688Z" fill="white"/>
</mask>
<g mask="url(#mask1_4791_3753)">
<path d="M1.74662 9.28125H-0.0722656V9.66007H1.74662V9.28125Z" fill="white" fill-opacity="0.25"/>
</g>
<path d="M10.0406 0H43.2352L41.8267 2.87907H15.197L16.4977 5.11413H29.3026L24.6826 7.95532H14.6788L10.0406 0ZM29.3026 5.11413L24.6826 7.95532L21.7724 14.3006V20.3618L29.3026 5.11413ZM4.875 2.87907H7.6397L7.60332 9.35697L18.9531 9.37591L21.7724 14.3006V20.3618C20.5356 17.9184 18.4984 14.7552 17.2252 12.3307H7.6397L7.65789 17.8616H4.875V2.87907Z" fill="url(#paint1_linear_4791_3753)"/>
<mask id="mask2_4791_3753" style="mask-type:luminance" maskUnits="userSpaceOnUse" x="10" y="0" width="34" height="8">
<path d="M10.041 0H43.2356L41.8271 2.87907H15.1974L16.498 5.11413H29.303L24.683 7.95532H14.6792L10.041 0Z" fill="white"/>
</mask>
<g mask="url(#mask2_4791_3753)">
<path d="M43.3265 0H10.041V0.378825H43.3265V0Z" fill="white" fill-opacity="0.4"/>
</g>
<mask id="mask3_4791_3753" style="mask-type:luminance" maskUnits="userSpaceOnUse" x="10" y="0" width="34" height="8">
<path d="M10.041 0H43.2356L41.8271 2.87907H15.1974L16.498 5.11413H29.303L24.683 7.95532H14.6792L10.041 0Z" fill="white"/>
</mask>
<g mask="url(#mask3_4791_3753)">
<path d="M41.8723 2.87891H15.1348V3.25773H41.8723V2.87891Z" fill="white" fill-opacity="0.22"/>
</g>
<mask id="mask4_4791_3753" style="mask-type:luminance" maskUnits="userSpaceOnUse" x="10" y="0" width="34" height="8">
<path d="M10.041 0H43.2356L41.8271 2.87907H15.1974L16.498 5.11413H29.303L24.683 7.95532H14.6792L10.041 0Z" fill="white"/>
</mask>
<g mask="url(#mask4_4791_3753)">
<path d="M29.3203 5.11328H16.4062V5.49211H29.3203V5.11328Z" fill="white" fill-opacity="0.2"/>
</g>
<mask id="mask5_4791_3753" style="mask-type:luminance" maskUnits="userSpaceOnUse" x="4" y="2" width="18" height="19">
<path d="M4.875 2.87891H7.6397L7.60332 9.35681L18.9531 9.37575L21.7724 14.3005V20.3617C20.5356 17.9182 18.4984 14.7551 17.2252 12.3306H7.6397L7.65789 17.8614H4.875V2.87891Z" fill="white"/>
</mask>
<g mask="url(#mask5_4791_3753)">
<path d="M7.67584 2.87891H4.76562V3.25773H7.67584V2.87891Z" fill="white" fill-opacity="0.3"/>
</g>
<mask id="mask6_4791_3753" style="mask-type:luminance" maskUnits="userSpaceOnUse" x="4" y="2" width="18" height="19">
<path d="M4.875 2.87891H7.6397L7.60332 9.35681L18.9531 9.37575L21.7724 14.3005V20.3617C20.5356 17.9182 18.4984 14.7551 17.2252 12.3306H7.6397L7.65789 17.8614H4.875V2.87891Z" fill="white"/>
</mask>
<g mask="url(#mask6_4791_3753)">
<path d="M19.135 9.375H7.49414V9.75382H19.135V9.375Z" fill="white" fill-opacity="0.2"/>
</g>
<path d="M45.5087 2.91797H48.4189V18.0331H45.5815L45.5633 15.1565V12.3128H31.958L25.1372 26.1381L23.3184 22.9181C24.2642 20.8724 27.8656 13.7334 28.775 11.8203L32.0854 5.09621H40.7251L39.3245 7.89951H34.1407L33.4737 9.26328H45.5087V2.91797Z" fill="url(#paint2_linear_4791_3753)"/>
<mask id="mask7_4791_3753" style="mask-type:luminance" maskUnits="userSpaceOnUse" x="23" y="2" width="26" height="25">
<path d="M45.5087 2.91797H48.4189V18.0331H45.5815L45.5633 15.1565V12.3128H31.958L25.1372 26.1381L23.3184 22.9181C24.2642 20.8724 27.8656 13.7334 28.775 11.8203L32.0854 5.09621H40.7251L39.3245 7.89951H34.1407L33.4737 9.26328H45.5087V2.91797Z" fill="white"/>
</mask>
<g mask="url(#mask7_4791_3753)">
<path d="M45.6904 5.09375H32.0488V5.47257H45.6904V5.09375Z" fill="white" fill-opacity="0.4"/>
</g>
<mask id="mask8_4791_3753" style="mask-type:luminance" maskUnits="userSpaceOnUse" x="23" y="2" width="26" height="25">
<path d="M45.5087 2.91797H48.4189V18.0331H45.5815L45.5633 15.1565V12.3128H31.958L25.1372 26.1381L23.3184 22.9181C24.2642 20.8724 27.8656 13.7334 28.775 11.8203L32.0854 5.09621H40.7251L39.3245 7.89951H34.1407L33.4737 9.26328H45.5087V2.91797Z" fill="white"/>
</mask>
<g mask="url(#mask8_4791_3753)">
<path d="M39.3236 7.89844H34.0488V8.27726H39.3236V7.89844Z" fill="white" fill-opacity="0.22"/>
</g>
<mask id="mask9_4791_3753" style="mask-type:luminance" maskUnits="userSpaceOnUse" x="23" y="2" width="26" height="25">
<path d="M45.5087 2.91797H48.4189V18.0331H45.5815L45.5633 15.1565V12.3128H31.958L25.1372 26.1381L23.3184 22.9181C24.2642 20.8724 27.8656 13.7334 28.775 11.8203L32.0854 5.09621H40.7251L39.3245 7.89951H34.1407L33.4737 9.26328H45.5087V2.91797Z" fill="white"/>
</mask>
<g mask="url(#mask9_4791_3753)">
<path d="M45.5088 9.26172H33.3223V9.64054H45.5088V9.26172Z" fill="white" fill-opacity="0.2"/>
</g>
<mask id="mask10_4791_3753" style="mask-type:luminance" maskUnits="userSpaceOnUse" x="23" y="2" width="26" height="25">
<path d="M45.5087 2.91797H48.4189V18.0331H45.5815L45.5633 15.1565V12.3128H31.958L25.1372 26.1381L23.3184 22.9181C24.2642 20.8724 27.8656 13.7334 28.775 11.8203L32.0854 5.09621H40.7251L39.3245 7.89951H34.1407L33.4737 9.26328H45.5087V2.91797Z" fill="white"/>
</mask>
<g mask="url(#mask10_4791_3753)">
<path d="M48.418 2.91602H45.5078V3.29484H48.418V2.91602Z" fill="white" fill-opacity="0.35"/>
</g>
<path d="M49.1641 4.16797H52.0743V9.35787H53.5816V12.3506H52.0743V17.1806H49.1641V4.16797Z" fill="#AD9DDB"/>
<mask id="mask11_4791_3753" style="mask-type:luminance" maskUnits="userSpaceOnUse" x="49" y="4" width="5" height="14">
<path d="M49.1641 4.16797H52.0743V9.35787H53.5816V12.3506H52.0743V17.1806H49.1641V4.16797Z" fill="white"/>
</mask>
<g mask="url(#mask11_4791_3753)">
<path d="M52.2386 4.16797H49.1465V4.54679H52.2386V4.16797Z" fill="white" fill-opacity="0.35"/>
</g>
<mask id="mask12_4791_3753" style="mask-type:luminance" maskUnits="userSpaceOnUse" x="49" y="4" width="5" height="14">
<path d="M49.1641 4.16797H52.0743V9.35787H53.5816V12.3506H52.0743V17.1806H49.1641V4.16797Z" fill="white"/>
</mask>
<g mask="url(#mask12_4791_3753)">
<path d="M53.6936 9.35742H52.0566V9.73625H53.6936V9.35742Z" fill="white" fill-opacity="0.25"/>
</g>
<defs>
<linearGradient id="paint0_linear_4791_3753" x1="1.16408" y1="16.8208" x2="4.55572" y2="5.16747" gradientUnits="userSpaceOnUse">
<stop stop-color="#4330AC"/>
<stop offset="1" stop-color="#6040EA"/>
</linearGradient>
<linearGradient id="paint1_linear_4791_3753" x1="20.9539" y1="20.4565" x2="24.89" y2="-2.41101" gradientUnits="userSpaceOnUse">
<stop stop-color="#4935BC"/>
<stop offset="1" stop-color="#855CFF"/>
</linearGradient>
<linearGradient id="paint2_linear_4791_3753" x1="33.0297" y1="29.2516" x2="23.5333" y2="9.43608" gradientUnits="userSpaceOnUse">
<stop stop-color="#857EBF"/>
<stop offset="1" stop-color="#DDC2FE"/>
</linearGradient>
</defs>
</svg>
