<svg width="18" height="18" viewBox="0 0 18 18" fill="none" xmlns="http://www.w3.org/2000/svg">
<path d="M14.0346 14.6289C13.4121 15.5589 12.7521 16.4664 11.7471 16.4814C10.7421 16.5039 10.4196 15.8889 9.27958 15.8889C8.13208 15.8889 7.77958 16.4664 6.82708 16.5039C5.84458 16.5414 5.10208 15.5139 4.47208 14.6064C3.18958 12.7539 2.20708 9.34141 3.52708 7.04641C4.17958 5.90641 5.34958 5.18641 6.61708 5.16391C7.57708 5.14891 8.49208 5.81641 9.08458 5.81641C9.66958 5.81641 10.7796 5.01391 11.9346 5.13391C12.4221 5.15641 13.7871 5.32891 14.6646 6.61891C14.5971 6.66391 13.0371 7.57891 13.0521 9.47641C13.0746 11.7414 15.0396 12.4989 15.0621 12.5064C15.0396 12.5589 14.7471 13.5864 14.0271 14.6289M9.75208 2.62891C10.2996 2.00641 11.2071 1.53391 11.9571 1.50391C12.0546 2.38141 11.7021 3.26641 11.1771 3.89641C10.6596 4.53391 9.80458 5.02891 8.96458 4.96141C8.85208 4.09891 9.27208 3.19891 9.75208 2.62891Z" fill="white"/>
</svg>
