<svg width="17" height="17" viewBox="0 0 17 17" fill="none" xmlns="http://www.w3.org/2000/svg">
<g clip-path="url(#clip0_3373_121389)">
<path fill-rule="evenodd" clip-rule="evenodd" d="M9.8224 3.95548C10.913 3.95548 11.8001 3.06833 11.8001 1.97774C11.8001 0.88715 10.913 0 9.8224 0C8.73194 0 7.84467 0.88715 7.84467 1.97774C7.84467 3.06833 8.73194 3.95548 9.8224 3.95548ZM9.8224 1.31849C10.186 1.31849 10.4817 1.61425 10.4817 1.97774C10.4817 2.34123 10.186 2.63699 9.8224 2.63699C9.45892 2.63699 9.16316 2.34123 9.16316 1.97774C9.16316 1.61425 9.45892 1.31849 9.8224 1.31849ZM14.1446 6.6974L13.0021 5.305C12.625 4.84533 12.0677 4.58176 11.4732 4.58176L3.03216 4.58176C3.02982 4.58176 3.02756 4.58193 3.02529 4.5821L3.02006 4.58241C3.0086 4.58266 2.99714 4.58331 2.98581 4.58408C2.97512 4.58485 2.96444 4.58563 2.95388 4.58691C2.94371 4.58807 2.93366 4.58975 2.92362 4.59155C2.91216 4.59335 2.9007 4.59528 2.88937 4.59773C2.88233 4.59932 2.87536 4.60121 2.86835 4.60312L2.86207 4.60481L2.85746 4.60604C2.84741 4.6087 2.83739 4.61136 2.82757 4.6146C2.82078 4.6168 2.81413 4.61935 2.80752 4.62189L2.80066 4.62451L2.79417 4.62693C2.7854 4.63019 2.77668 4.63344 2.76821 4.63726C2.75966 4.641 2.75133 4.64517 2.74292 4.64938L2.7404 4.65065C2.73061 4.65541 2.72083 4.66018 2.71143 4.66546C2.7019 4.67074 2.69276 4.67653 2.68361 4.68232C2.6746 4.68786 2.66572 4.6934 2.65696 4.69932C2.64821 4.7055 2.63971 4.71207 2.63121 4.71863C2.62245 4.72533 2.61383 4.73203 2.60546 4.73911C2.59773 4.74567 2.59026 4.75263 2.5828 4.75971C2.57417 4.76769 2.56567 4.77593 2.55743 4.78443L2.55359 4.78818C2.552 4.78968 2.55041 4.79118 2.54893 4.7928C2.54659 4.79529 2.54445 4.79791 2.54231 4.80054L2.53734 4.80645C2.52949 4.81546 2.52189 4.82435 2.51455 4.83375C2.50812 4.84186 2.50206 4.8501 2.49601 4.85847C2.48957 4.86748 2.48339 4.87662 2.47747 4.88589C2.47155 4.89503 2.46601 4.90431 2.4606 4.91358C2.45532 4.92272 2.4503 4.93212 2.44554 4.94152C2.44052 4.9513 2.43575 4.96109 2.43137 4.971C2.427 4.98066 2.42301 4.99032 2.41901 5.00023C2.41515 5.01027 2.41129 5.02045 2.40794 5.03075C2.40446 5.04079 2.40137 5.05096 2.39854 5.06126C2.39558 5.07169 2.39288 5.08212 2.39043 5.09281C2.38798 5.10298 2.38592 5.11341 2.38412 5.12384C2.38206 5.13491 2.38039 5.14599 2.37897 5.15719C2.37768 5.16723 2.37652 5.17727 2.37575 5.18745C2.37485 5.19942 2.37421 5.2114 2.37395 5.22337C2.37389 5.22607 2.3737 5.22873 2.37351 5.2314C2.37328 5.23459 2.37305 5.23778 2.37305 5.24101C2.37305 5.24329 2.37321 5.24552 2.37338 5.24776L2.37369 5.25286C2.37382 5.2647 2.37459 5.27642 2.37536 5.28826L2.37574 5.29335C2.37637 5.30195 2.37699 5.31054 2.37807 5.31904C2.37913 5.32777 2.38055 5.3365 2.38195 5.34515L2.38283 5.35058L2.38413 5.35816C2.38557 5.36666 2.387 5.37508 2.38888 5.38342C2.39074 5.39159 2.39296 5.39976 2.39516 5.40785L2.39635 5.41226L2.39774 5.41748C2.40022 5.42684 2.40271 5.43623 2.40575 5.44535C2.40839 5.45358 2.41149 5.46163 2.41458 5.46964L2.41618 5.47381L2.41761 5.47767C2.42098 5.4868 2.42433 5.4959 2.42828 5.50471C2.43142 5.51202 2.43497 5.51918 2.43852 5.52636L2.44232 5.53407L2.44463 5.53871C2.44847 5.54642 2.4523 5.55411 2.45648 5.56162C2.4609 5.56961 2.46583 5.57743 2.47079 5.58529L2.47412 5.59059C2.4794 5.59922 2.48468 5.60784 2.49048 5.61609C2.49558 5.62353 2.50112 5.63071 2.50674 5.63799L2.5103 5.64261L2.51299 5.6461C2.51864 5.65343 2.52426 5.66072 2.53026 5.66772C2.53603 5.67448 2.54208 5.68096 2.54818 5.68748L2.55112 5.69064C2.5591 5.69926 2.56722 5.70776 2.57571 5.71587L2.57947 5.71972C2.58096 5.7213 2.58246 5.72289 2.58408 5.72437L8.33369 11.0565C8.69641 11.4715 9.22908 11.7346 9.8224 11.7346H10.4817V16.2175C10.4817 16.5816 10.7769 16.8767 11.1409 16.8767C11.505 16.8767 11.8001 16.5816 11.8001 16.2175V11.1207L14.0299 8.91438C14.6383 8.31217 14.6876 7.35923 14.1446 6.6974ZM7.84467 5.90026V8.80493L4.7126 5.90026L7.84467 5.90026ZM10.4817 10.4161V5.90026H9.16316L9.16316 9.75685C9.16316 9.90338 9.21183 10.0384 9.29295 10.148L9.38076 10.2294C9.40214 10.2492 9.42145 10.2706 9.4396 10.2925C9.54763 10.37 9.67961 10.4161 9.8224 10.4161H10.4817ZM13.1024 7.97714L11.8001 9.26576V5.98678C11.869 6.02613 11.9309 6.07816 11.9827 6.14129L13.1253 7.53382C13.2339 7.66619 13.2241 7.85675 13.1024 7.97714Z" fill="#C9BEA1"/>
</g>
<defs>
<clipPath id="clip0_3373_121389">
<rect width="16.8767" height="16.8767" fill="white"/>
</clipPath>
</defs>
</svg>
