<svg width="20" height="20" viewBox="0 0 20 20" fill="none" xmlns="http://www.w3.org/2000/svg">
<path d="M10.001 1.66797V0.917969V0.917969V1.66797ZM18.334 10.001H19.084V10.001H18.334ZM10.001 18.334V19.084V19.084V18.334ZM3.53711 17.8281L3.78685 18.5353L3.78716 18.5352L3.53711 17.8281ZM2.00586 16.2969L1.29872 16.047L1.29871 16.047L2.00586 16.2969ZM1.66797 10.001H0.917969V10.001H1.66797ZM2.55139 13.7346L1.88126 14.0714L2.55139 13.7346ZM6.03675 17.3313L5.67931 17.9906L6.03675 17.3313ZM10.001 1.66797V2.41797C14.1891 2.41797 17.584 5.81282 17.584 10.001H18.334H19.084C19.084 4.98439 15.0176 0.91797 10.001 0.917969V1.66797ZM18.334 10.001H17.584C17.584 14.1891 14.1891 17.584 10.001 17.584V18.334V19.084C15.0176 19.084 19.084 15.0176 19.084 10.001H18.334ZM10.001 18.334V17.584C8.69384 17.584 7.46636 17.2532 6.3942 16.672L6.03675 17.3313L5.67931 17.9906C6.96503 18.6877 8.4375 19.084 10.001 19.084V18.334ZM5.17006 17.2507L4.92001 16.5436L3.28706 17.121L3.53711 17.8281L3.78716 18.5352L5.4201 17.9578L5.17006 17.2507ZM3.53711 17.8281L3.28737 17.1209C2.93045 17.247 2.58709 16.9031 2.71301 16.5468L2.00586 16.2969L1.29871 16.047C0.752504 17.5928 2.24167 19.081 3.78685 18.5353L3.53711 17.8281ZM2.00586 16.2969L2.713 16.5468L3.32283 14.8211L2.61569 14.5712L1.90854 14.3213L1.29872 16.047L2.00586 16.2969ZM2.55139 13.7346L3.22153 13.3978C2.70815 12.3763 2.41797 11.2236 2.41797 10.001H1.66797H0.917969C0.917969 11.4639 1.26572 12.8466 1.88126 14.0714L2.55139 13.7346ZM1.66797 10.001H2.41797C2.41797 5.81282 5.81282 2.41797 10.001 2.41797V1.66797V0.917969C4.98439 0.917969 0.917969 4.98439 0.917969 10.001H1.66797ZM2.61569 14.5712L3.32283 14.8211C3.495 14.3339 3.43391 13.8205 3.22153 13.3978L2.55139 13.7346L1.88126 14.0714C1.93045 14.1693 1.93047 14.2593 1.90854 14.3213L2.61569 14.5712ZM6.03675 17.3313L6.3942 16.672C5.96182 16.4376 5.42708 16.3643 4.92001 16.5436L5.17006 17.2507L5.4201 17.9578C5.48457 17.935 5.57875 17.9361 5.67931 17.9906L6.03675 17.3313Z" fill="white"/>
<circle cx="5.87565" cy="10.0417" r="1.04167" fill="white"/>
<circle cx="10.0417" cy="10.0417" r="1.04167" fill="white"/>
<circle cx="14.2096" cy="10.0417" r="1.04167" fill="white"/>
</svg>
