<svg width="12" height="13" viewBox="0 0 12 13" fill="none" xmlns="http://www.w3.org/2000/svg">
<path d="M5.60233 6.20841L0.0507812 11.9199C0.0513027 11.9209 0.0513026 11.9224 0.051824 11.9234C0.222328 12.5436 0.806318 13 1.49981 13C1.7772 13 2.03739 12.9272 2.26056 12.7998L2.27829 12.7897L8.52698 9.29462L5.60233 6.20841Z" fill="#EA4335"/>
<path d="M11.219 5.23675L11.2137 5.23321L8.51592 3.7174L5.47656 6.33911L8.52687 9.29492L11.2101 7.79427C11.6804 7.54762 12 7.06694 12 6.51298C12 5.96205 11.6851 5.48391 11.219 5.23675Z" fill="#FBBC04"/>
<path d="M0.0510991 1.07976C0.0177283 1.19904 0 1.32439 0 1.45378V11.5464C0 11.6758 0.0177283 11.8011 0.0516205 11.9199L5.79349 6.35453L0.0510991 1.07976Z" fill="#4285F4"/>
<path d="M5.64352 6.5L8.51655 3.71553L2.27516 0.207782C2.04834 0.0758619 1.78346 4.62532e-05 1.50033 4.62532e-05C0.806839 4.62532e-05 0.221806 0.457469 0.0513024 1.07815C0.0513024 1.07865 0.0507812 1.07916 0.0507812 1.07967L5.64352 6.5Z" fill="#34A853"/>
</svg>
