<svg width="17" height="17" viewBox="0 0 17 17" fill="none" xmlns="http://www.w3.org/2000/svg">
<g clip-path="url(#clip0_3373_121416)">
<path d="M14.9455 9.17255C15.4656 8.32647 15.7959 7.44404 15.7959 6.56701C15.7959 3.95797 13.9195 1.92578 11.5003 1.92578C10.1631 1.92578 9.16139 2.53374 8.47189 3.319C8.46029 3.3308 8.44967 3.34316 8.43916 3.35595C7.74767 2.55296 6.7354 1.92578 5.37758 1.92578C2.95838 1.92578 1.08203 3.95797 1.08203 6.56701C1.08203 7.44176 1.4167 8.32469 1.94324 9.17255V9.20551C3.88558 12.333 8.43916 14.9499 8.43916 14.9499L8.47189 14.9488C8.47189 14.9488 13.0159 12.3441 14.9455 9.20551V9.17255Z" stroke="#D8B7B1" stroke-width="1.15068" stroke-miterlimit="10" stroke-linecap="round" stroke-linejoin="round"/>
<path d="M0.703125 8.95366H4.71956L6.03158 7.06122L7.83412 10.5493L10.1674 5.62695L11.7656 8.95366H16.1734" stroke="#D8B7B1" stroke-width="1.15068" stroke-miterlimit="10" stroke-linecap="round" stroke-linejoin="round"/>
</g>
<defs>
<clipPath id="clip0_3373_121416">
<rect width="16.8767" height="16.8767" fill="white"/>
</clipPath>
</defs>
</svg>
