<svg width="18" height="18" viewBox="0 0 18 18" fill="none" xmlns="http://www.w3.org/2000/svg">
  <path fill="#808289" d="M16.2 0H1.8C.8 0 0 .8 0 1.8v14.4C0 17.2.8 18 1.8 18h14.4c1 0 1.8-.8 1.8-1.8V1.8C18 .8 17.2 0 16.2 0ZM5.4 14.85H3.15V6.9H5.4v7.95ZM4.28 5.85c-.72 0-1.3-.58-1.3-1.3 0-.72.58-1.3 1.3-1.3.72 0 1.3.58 1.3 1.3 0 .72-.58 1.3-1.3 1.3Zm10.57 9H12.7v-3.87c0-.92-.02-2.1-1.28-2.1-1.28 0-1.48 1-1.48 2.04v3.93H7.7V6.9h2.16v1.08h.03c.3-.57 1.04-1.17 2.14-1.17 2.29 0 2.82 1.5 2.82 3.46v4.58Z"/>
</svg>
