<svg width="45" height="53" viewBox="0 0 45 53" fill="none" xmlns="http://www.w3.org/2000/svg">
<g opacity="0.75">
<path d="M22.2979 2.09766C22.713 2.09767 23.1388 2.15403 23.7529 2.27734C24.2672 2.3806 24.9041 2.62799 25.8291 3.0791C26.7506 3.5285 27.9227 4.16172 29.5029 5.01562C31.5424 6.11766 33.6378 7.12566 35.7783 8.01562C37.5038 8.73304 38.7764 9.26238 39.7549 9.74512C40.7304 10.2264 41.3793 10.6455 41.8701 11.1279C42.7402 11.9833 43.4439 13.1605 43.7852 14.332C44.1809 15.6908 44.0771 16.8039 43.833 19.251C43.4076 23.5157 42.3723 28.7158 40.0186 33.502C36.6132 40.4262 31.2622 45.3406 27.2764 48.291C26.0833 49.1742 25.5435 49.5726 24.1621 49.9326C23.7538 50.039 23.0444 50.1006 22.2979 50.1006C21.5513 50.1006 20.8419 50.039 20.4336 49.9326C19.0521 49.5726 18.5125 49.1742 17.3193 48.291C13.3335 45.3406 7.98254 40.4263 4.57715 33.502C2.22339 28.7158 1.18813 23.5158 0.762695 19.251C0.518605 16.8039 0.413792 15.6908 0.80957 14.332C1.15083 13.1605 1.8545 11.9834 2.72461 11.1279C3.21551 10.6453 3.86509 10.2265 4.84082 9.74512C5.81927 9.26239 7.0919 8.73303 8.81738 8.01562C10.9579 7.12566 13.0533 6.11766 15.0928 5.01562C16.673 4.16172 17.8451 3.5285 18.7666 3.0791C19.6915 2.62804 20.3286 2.3806 20.8428 2.27734C21.4568 2.15405 21.8828 2.09766 22.2979 2.09766Z" fill="#1B1147" stroke="url(#paint0_linear_3373_121445)" stroke-width="0.985662" stroke-linecap="round"/>
<g opacity="0.75" clip-path="url(#clip0_3373_121445)">
<path d="M29.4238 19.0393H27.077C27.0808 18.8865 27.0829 18.7325 27.0829 18.5773C27.0829 18.3221 26.876 18.1152 26.6208 18.1152H17.3802C17.1251 18.1152 16.9182 18.3221 16.9182 18.5773C16.9182 18.7325 16.9203 18.8865 16.9241 19.0393H14.5773C14.3221 19.0393 14.1152 19.2462 14.1152 19.5013V20.6716C14.1152 23.2567 16.1671 25.3745 18.7375 25.5016C19.2731 26.2321 19.9042 26.7608 20.6065 27.0628C20.5438 28.3123 20.1225 29.3243 19.7645 29.9718C19.3386 30.7423 18.9052 31.1838 18.9016 31.1874V31.1874C18.8171 31.2719 18.7663 31.3908 18.7663 31.5141V32.9618H18.3043C18.0491 32.9618 17.8423 33.1686 17.8423 33.4238C17.8423 33.679 18.0491 33.8858 18.3043 33.8858H25.6968C25.9519 33.8858 26.1588 33.679 26.1588 33.4238C26.1588 33.1686 25.9519 32.9618 25.6968 32.9618H25.2347V31.5141C25.2347 31.3968 25.1878 31.2758 25.0994 31.1874C25.0994 31.1874 25.0994 31.1874 25.0994 31.1874C25.083 31.1709 23.5188 29.5779 23.3944 27.0628C24.0968 26.7609 24.7279 26.2321 25.2636 25.5016C27.834 25.3745 29.8858 23.2567 29.8858 20.6716V19.5013C29.8858 19.2462 29.679 19.0393 29.4238 19.0393ZM15.0393 20.6716V19.9634H16.9706C17.0897 21.5071 17.4285 23.1189 18.1217 24.4895C16.36 24.099 15.0393 22.5356 15.0393 20.6716ZM19.6904 32.9618V31.9761H24.3107V32.9618H19.6904ZM22.7837 26.3059C22.5924 26.3672 22.4626 26.5451 22.4626 26.746C22.4626 28.7047 23.234 30.2019 23.8153 31.0521H20.1858C20.7671 30.2019 21.5385 28.7047 21.5385 26.746C21.5385 26.5451 21.4087 26.3672 21.2174 26.3059C20.1218 25.9552 19.3512 24.9368 18.856 23.8885C18.2426 22.5897 17.8966 20.921 17.8482 19.0393H26.1529C26.1045 20.921 25.7585 22.5897 25.145 23.8885C24.6548 24.9263 23.8858 25.9531 22.7837 26.3059ZM28.9618 20.6716C28.9618 22.5356 27.641 24.099 25.8793 24.4895C26.5726 23.1189 26.9113 21.5071 27.0304 19.9633H28.9618V20.6716Z" fill="#AFA4DE"/>
</g>
</g>
<defs>
<linearGradient id="paint0_linear_3373_121445" x1="22.2977" y1="0" x2="22.2977" y2="52.043" gradientUnits="userSpaceOnUse">
<stop stop-color="white" stop-opacity="0.3"/>
<stop offset="0.471154" stop-color="white" stop-opacity="0.05"/>
</linearGradient>
<clipPath id="clip0_3373_121445">
<rect width="15.7706" height="15.7706" fill="white" transform="translate(14.1152 18.1152)"/>
</clipPath>
</defs>
</svg>
