<svg width="18" height="18" viewBox="0 0 18 18" fill="none" xmlns="http://www.w3.org/2000/svg">
<path d="M17.6475 1.47281C17.3579 1.20749 16.9464 1.11907 16.5733 1.24201L0.74641 6.45924C0.315078 6.60141 0.0225783 6.98644 0.00123846 7.44006C-0.0200662 7.89372 0.234992 8.30452 0.651031 8.48659L4.56515 10.1991C4.58424 10.2877 5.70787 15.4991 5.74609 15.6763C5.79513 15.9038 5.91062 16.1065 6.15527 16.1688C6.40273 16.2319 6.57757 16.0966 6.76221 15.9584C6.86497 15.8815 9.66682 13.7834 9.66682 13.7834L13.0625 16.5622C13.2603 16.7241 13.502 16.8085 13.7485 16.8085C13.8659 16.8085 13.9844 16.7894 14.0996 16.7503C14.457 16.6291 14.7219 16.3374 14.8083 15.9701L17.9712 2.52272C18.0611 2.1404 17.9371 1.73814 17.6475 1.47281ZM7.01523 11.1804C7.01329 11.185 7.01139 11.1902 7.0096 11.1964L6.35485 13.4839L5.62416 10.095L10.6486 7.30344L7.13574 10.9765C7.08041 11.0344 7.0397 11.1043 7.01523 11.1804ZM7.22304 14.2926L7.52042 13.2536L7.80487 12.2598L8.82409 13.0938L7.22304 14.2926ZM16.9421 2.28063L13.7793 15.728C13.7777 15.7346 13.7756 15.7439 13.7601 15.7491C13.7448 15.7543 13.7373 15.7484 13.732 15.744L10.0163 12.7034C10.0162 12.7033 10.0162 12.7032 10.0161 12.7032L8.29449 11.2944L13.8254 5.51125C14.006 5.32235 14.0215 5.02982 13.8618 4.82292C13.702 4.61599 13.415 4.5569 13.1866 4.68388L4.99694 9.23412L1.0748 7.51804C1.06285 7.51283 1.05628 7.50991 1.05723 7.4897C1.05818 7.46956 1.065 7.46727 1.07737 7.46319L16.9043 2.246C16.912 2.24351 16.9206 2.24063 16.9333 2.25223C16.9461 2.2639 16.9439 2.27276 16.9421 2.28063Z" fill="#808289"/>
</svg>
