<svg width="20" height="20" viewBox="0 0 20 20" fill="none" xmlns="http://www.w3.org/2000/svg">
<g clip-path="url(#clip0_4365_1996)">
<path d="M12 12L8 8" stroke="white" stroke-width="1.33333" stroke-linecap="round" stroke-linejoin="round"/>
<path d="M15.5468 17.9035C15.2343 18.2161 14.8104 18.3918 14.3684 18.3919C13.9264 18.392 13.5024 18.2164 13.1898 17.9039C12.8771 17.5914 12.7015 17.1675 12.7014 16.7255C12.7013 16.2834 12.8768 15.8595 13.1893 15.5468L11.7168 17.0202C11.4042 17.3328 10.9802 17.5084 10.5381 17.5084C10.096 17.5084 9.67197 17.3328 9.35935 17.0202C9.04672 16.7076 8.87109 16.2835 8.87109 15.8414C8.87109 15.3993 9.04672 14.9753 9.35935 14.6627L14.6627 9.35935C14.9753 9.04672 15.3993 8.87109 15.8414 8.87109C16.2835 8.87109 16.7076 9.04672 17.0202 9.35935C17.3328 9.67197 17.5084 10.096 17.5084 10.5381C17.5084 10.9802 17.3328 11.4042 17.0202 11.7168L15.5468 13.1893C15.8595 12.8768 16.2834 12.7013 16.7255 12.7014C17.1675 12.7015 17.5914 12.8771 17.9039 13.1898C18.2164 13.5024 18.392 13.9264 18.3919 14.3684C18.3918 14.8104 18.2161 15.2343 17.9035 15.5468L15.5468 17.9035Z" stroke="white" stroke-width="1.33333" stroke-linecap="round" stroke-linejoin="round"/>
<path d="M17.9167 17.9167L16.75 16.75" stroke="white" stroke-width="1.33333" stroke-linecap="round" stroke-linejoin="round"/>
<path d="M3.2487 3.2487L2.08203 2.08203" stroke="white" stroke-width="1.33333" stroke-linecap="round" stroke-linejoin="round"/>
<path d="M5.33468 10.638C5.02205 10.9506 4.59805 11.1263 4.15593 11.1263C3.71381 11.1263 3.2898 10.9506 2.97718 10.638C2.66455 10.3254 2.48892 9.90138 2.48892 9.45926C2.48892 9.01714 2.66455 8.59314 2.97718 8.28051L4.45051 6.80801C4.29572 6.96275 4.11196 7.08549 3.90973 7.16921C3.7075 7.25294 3.49076 7.29601 3.27188 7.29597C2.82984 7.29589 2.40594 7.12022 2.09343 6.8076C1.93869 6.6528 1.81595 6.46904 1.73223 6.26681C1.6485 6.06458 1.60543 5.84784 1.60547 5.62897C1.60555 5.18693 1.78122 4.76303 2.09385 4.45051L4.45051 2.09385C4.76303 1.78122 5.18693 1.60555 5.62897 1.60547C5.84784 1.60543 6.06458 1.6485 6.26681 1.73223C6.46904 1.81595 6.6528 1.93869 6.8076 2.09343C6.96239 2.24817 7.08519 2.43188 7.16899 2.63408C7.25278 2.83628 7.29593 3.05301 7.29597 3.27188C7.29601 3.49076 7.25294 3.7075 7.16921 3.90973C7.08549 4.11196 6.96275 4.29572 6.80801 4.45051L8.28051 2.97718C8.59314 2.66455 9.01714 2.48892 9.45926 2.48892C9.90138 2.48892 10.3254 2.66455 10.638 2.97718C10.9506 3.2898 11.1263 3.71381 11.1263 4.15593C11.1263 4.59805 10.9506 5.02205 10.638 5.33468L5.33468 10.638Z" stroke="white" stroke-width="1.33333" stroke-linecap="round" stroke-linejoin="round"/>
</g>
<defs>
<clipPath id="clip0_4365_1996">
<rect width="20" height="20" fill="white"/>
</clipPath>
</defs>
</svg>
